<mxfile host="app.diagrams.net" modified="2023-03-31T13:40:55.478Z" agent="Mozilla/5.0 (Macintosh; Intel Mac OS X 10.15; rv:109.0) Gecko/20100101 Firefox/111.0" etag="gTzM6mWeRwui4PZ4i4kh" version="21.1.2" type="github">
  <diagram name="Страница 1" id="E4G_tW7OQzHkqPettdcg">
    <mxGraphModel dx="2084" dy="753" grid="1" gridSize="10" guides="1" tooltips="1" connect="1" arrows="1" fold="1" page="1" pageScale="1" pageWidth="827" pageHeight="1169" math="0" shadow="0">
      <root>
        <mxCell id="0" />
        <mxCell id="1" parent="0" />
        <mxCell id="jxiP7f9gNLaoICvCJaSL-82" value="" style="rounded=0;whiteSpace=wrap;html=1;fillColor=none;" parent="1" vertex="1">
          <mxGeometry x="-780" y="963" width="250" height="370" as="geometry" />
        </mxCell>
        <mxCell id="jxiP7f9gNLaoICvCJaSL-1" value="Город: Москва&lt;br&gt;Должность: Бухгалтер" style="whiteSpace=wrap;html=1;aspect=fixed;" parent="1" vertex="1">
          <mxGeometry x="80" y="720" width="110" height="110" as="geometry" />
        </mxCell>
        <mxCell id="jxiP7f9gNLaoICvCJaSL-8" value="Город: Москва&lt;br&gt;Должность: Оператор" style="whiteSpace=wrap;html=1;aspect=fixed;" parent="1" vertex="1">
          <mxGeometry x="210" y="720" width="110" height="110" as="geometry" />
        </mxCell>
        <mxCell id="jxiP7f9gNLaoICvCJaSL-21" value="Город: ------&lt;br&gt;Должность: Бухгалтер" style="whiteSpace=wrap;html=1;aspect=fixed;strokeColor=#FF0000;" parent="1" vertex="1">
          <mxGeometry x="1160" y="720" width="110" height="110" as="geometry" />
        </mxCell>
        <mxCell id="jxiP7f9gNLaoICvCJaSL-22" value="Город: ------&lt;br&gt;Должность: Оператор" style="whiteSpace=wrap;html=1;aspect=fixed;strokeColor=#FF0000;" parent="1" vertex="1">
          <mxGeometry x="1030" y="720" width="110" height="110" as="geometry" />
        </mxCell>
        <mxCell id="jxiP7f9gNLaoICvCJaSL-23" value="Город: Москва&lt;br&gt;Должность: ---------" style="whiteSpace=wrap;html=1;aspect=fixed;strokeColor=#FF0000;" parent="1" vertex="1">
          <mxGeometry x="340" y="720" width="110" height="110" as="geometry" />
        </mxCell>
        <mxCell id="jxiP7f9gNLaoICvCJaSL-24" value="Город: СПБ&lt;br&gt;Должность: Бухгалтер" style="whiteSpace=wrap;html=1;aspect=fixed;" parent="1" vertex="1">
          <mxGeometry x="490" y="720" width="110" height="110" as="geometry" />
        </mxCell>
        <mxCell id="jxiP7f9gNLaoICvCJaSL-25" value="Город: СПБ&lt;br&gt;Должность: Оператор" style="whiteSpace=wrap;html=1;aspect=fixed;" parent="1" vertex="1">
          <mxGeometry x="620" y="720" width="110" height="110" as="geometry" />
        </mxCell>
        <mxCell id="jxiP7f9gNLaoICvCJaSL-26" value="Город: СПБ&lt;br&gt;Должность: ---------" style="whiteSpace=wrap;html=1;aspect=fixed;strokeColor=#FF0000;" parent="1" vertex="1">
          <mxGeometry x="750" y="720" width="110" height="110" as="geometry" />
        </mxCell>
        <mxCell id="jxiP7f9gNLaoICvCJaSL-27" value="Город: ------&lt;br&gt;Должность: ---------" style="whiteSpace=wrap;html=1;aspect=fixed;strokeColor=#FF0000;" parent="1" vertex="1">
          <mxGeometry x="900" y="720" width="110" height="110" as="geometry" />
        </mxCell>
        <mxCell id="jxiP7f9gNLaoICvCJaSL-45" value="" style="endArrow=classic;html=1;rounded=0;exitX=0.5;exitY=1;exitDx=0;exitDy=0;entryX=0.5;entryY=0;entryDx=0;entryDy=0;" parent="1" source="jxiP7f9gNLaoICvCJaSL-55" target="jxiP7f9gNLaoICvCJaSL-1" edge="1">
          <mxGeometry width="50" height="50" relative="1" as="geometry">
            <mxPoint x="135" y="400.0000000000002" as="sourcePoint" />
            <mxPoint x="135" y="660" as="targetPoint" />
          </mxGeometry>
        </mxCell>
        <mxCell id="jxiP7f9gNLaoICvCJaSL-48" value="Город: Москва&lt;br&gt;Должность: Бухгалтер Оператор" style="whiteSpace=wrap;html=1;aspect=fixed;" parent="1" vertex="1">
          <mxGeometry x="-50" y="720" width="110" height="110" as="geometry" />
        </mxCell>
        <mxCell id="jxiP7f9gNLaoICvCJaSL-49" value="" style="endArrow=classic;html=1;rounded=0;entryX=0.5;entryY=0;entryDx=0;entryDy=0;exitX=0.5;exitY=1;exitDx=0;exitDy=0;" parent="1" source="jxiP7f9gNLaoICvCJaSL-55" target="jxiP7f9gNLaoICvCJaSL-48" edge="1">
          <mxGeometry width="50" height="50" relative="1" as="geometry">
            <mxPoint x="135" y="280" as="sourcePoint" />
            <mxPoint x="400" y="540" as="targetPoint" />
          </mxGeometry>
        </mxCell>
        <mxCell id="jxiP7f9gNLaoICvCJaSL-50" value="Город: Москва СПБ&lt;br&gt;Должность: Бухгалтер Оператор" style="whiteSpace=wrap;html=1;aspect=fixed;" parent="1" vertex="1">
          <mxGeometry x="-180" y="720" width="110" height="110" as="geometry" />
        </mxCell>
        <mxCell id="jxiP7f9gNLaoICvCJaSL-51" value="" style="endArrow=classic;html=1;rounded=0;entryX=0.5;entryY=0;entryDx=0;entryDy=0;exitX=0.5;exitY=1;exitDx=0;exitDy=0;" parent="1" source="jxiP7f9gNLaoICvCJaSL-55" target="jxiP7f9gNLaoICvCJaSL-50" edge="1">
          <mxGeometry width="50" height="50" relative="1" as="geometry">
            <mxPoint x="135" y="400.0000000000002" as="sourcePoint" />
            <mxPoint x="210" y="530" as="targetPoint" />
          </mxGeometry>
        </mxCell>
        <mxCell id="jxiP7f9gNLaoICvCJaSL-52" value="Город: Москва СПБ&lt;br&gt;Должность: Оператор" style="whiteSpace=wrap;html=1;aspect=fixed;" parent="1" vertex="1">
          <mxGeometry x="-310" y="720" width="110" height="110" as="geometry" />
        </mxCell>
        <mxCell id="jxiP7f9gNLaoICvCJaSL-53" value="Город: Москва СПБ&lt;br&gt;Должность: --------" style="whiteSpace=wrap;html=1;aspect=fixed;strokeColor=#FF0000;" parent="1" vertex="1">
          <mxGeometry x="-440" y="720" width="110" height="110" as="geometry" />
        </mxCell>
        <mxCell id="jxiP7f9gNLaoICvCJaSL-54" value="Город: Москва СПБ&lt;br&gt;Должность: Бухгалтер" style="whiteSpace=wrap;html=1;aspect=fixed;" parent="1" vertex="1">
          <mxGeometry x="-580" y="720" width="110" height="110" as="geometry" />
        </mxCell>
        <mxCell id="jxiP7f9gNLaoICvCJaSL-55" value="Город: Москва&lt;br&gt;Должность: Бухгалтер" style="whiteSpace=wrap;html=1;aspect=fixed;fillColor=#60a917;fontColor=#ffffff;strokeColor=#000000;" parent="1" vertex="1">
          <mxGeometry x="80" y="160" width="110" height="110" as="geometry" />
        </mxCell>
        <mxCell id="jxiP7f9gNLaoICvCJaSL-56" value="Город: Москва&lt;br&gt;Должность: Оператор" style="whiteSpace=wrap;html=1;aspect=fixed;" parent="1" vertex="1">
          <mxGeometry x="210" y="160" width="110" height="110" as="geometry" />
        </mxCell>
        <mxCell id="jxiP7f9gNLaoICvCJaSL-57" value="Город: ------&lt;br&gt;Должность: Бухгалтер" style="whiteSpace=wrap;html=1;aspect=fixed;strokeColor=#FF0000;" parent="1" vertex="1">
          <mxGeometry x="1160" y="160" width="110" height="110" as="geometry" />
        </mxCell>
        <mxCell id="jxiP7f9gNLaoICvCJaSL-58" value="Город: ------&lt;br&gt;Должность: Оператор" style="whiteSpace=wrap;html=1;aspect=fixed;strokeColor=#FF0000;" parent="1" vertex="1">
          <mxGeometry x="1030" y="160" width="110" height="110" as="geometry" />
        </mxCell>
        <mxCell id="jxiP7f9gNLaoICvCJaSL-59" value="Город: Москва&lt;br&gt;Должность: ---------" style="whiteSpace=wrap;html=1;aspect=fixed;strokeColor=#FF3333;" parent="1" vertex="1">
          <mxGeometry x="340" y="160" width="110" height="110" as="geometry" />
        </mxCell>
        <mxCell id="jxiP7f9gNLaoICvCJaSL-60" value="Город: СПБ&lt;br&gt;Должность: Бухгалтер" style="whiteSpace=wrap;html=1;aspect=fixed;" parent="1" vertex="1">
          <mxGeometry x="490" y="160" width="110" height="110" as="geometry" />
        </mxCell>
        <mxCell id="jxiP7f9gNLaoICvCJaSL-61" value="Город: СПБ&lt;br&gt;Должность: Оператор" style="whiteSpace=wrap;html=1;aspect=fixed;" parent="1" vertex="1">
          <mxGeometry x="620" y="160" width="110" height="110" as="geometry" />
        </mxCell>
        <mxCell id="jxiP7f9gNLaoICvCJaSL-62" value="Город: СПБ&lt;br&gt;Должность: ---------" style="whiteSpace=wrap;html=1;aspect=fixed;strokeColor=#FF0000;" parent="1" vertex="1">
          <mxGeometry x="750" y="160" width="110" height="110" as="geometry" />
        </mxCell>
        <mxCell id="jxiP7f9gNLaoICvCJaSL-63" value="Город: ------&lt;br&gt;Должность: ---------" style="whiteSpace=wrap;html=1;aspect=fixed;fillColor=#60a917;fontColor=#ffffff;strokeColor=#2D7600;" parent="1" vertex="1">
          <mxGeometry x="900" y="160" width="110" height="110" as="geometry" />
        </mxCell>
        <mxCell id="jxiP7f9gNLaoICvCJaSL-64" value="Город: Москва&lt;br&gt;Должность: Бухгалтер Оператор" style="whiteSpace=wrap;html=1;aspect=fixed;" parent="1" vertex="1">
          <mxGeometry x="-50" y="160" width="110" height="110" as="geometry" />
        </mxCell>
        <mxCell id="jxiP7f9gNLaoICvCJaSL-65" value="Город: Москва СПБ&lt;br&gt;Должность: Бухгалтер Оператор" style="whiteSpace=wrap;html=1;aspect=fixed;" parent="1" vertex="1">
          <mxGeometry x="-180" y="160" width="110" height="110" as="geometry" />
        </mxCell>
        <mxCell id="jxiP7f9gNLaoICvCJaSL-66" value="Город: Москва СПБ&lt;br&gt;Должность: Оператор" style="whiteSpace=wrap;html=1;aspect=fixed;" parent="1" vertex="1">
          <mxGeometry x="-310" y="160" width="110" height="110" as="geometry" />
        </mxCell>
        <mxCell id="jxiP7f9gNLaoICvCJaSL-67" value="Город: Москва СПБ&lt;br&gt;Должность: --------" style="whiteSpace=wrap;html=1;aspect=fixed;fillColor=#60a917;fontColor=#ffffff;strokeColor=#FF3333;" parent="1" vertex="1">
          <mxGeometry x="-440" y="160" width="110" height="110" as="geometry" />
        </mxCell>
        <mxCell id="jxiP7f9gNLaoICvCJaSL-68" value="Город: Москва СПБ&lt;br&gt;Должность: Бухгалтер" style="whiteSpace=wrap;html=1;aspect=fixed;fillColor=#60a917;fontColor=#ffffff;strokeColor=#2D7600;" parent="1" vertex="1">
          <mxGeometry x="-580" y="160" width="110" height="110" as="geometry" />
        </mxCell>
        <mxCell id="jxiP7f9gNLaoICvCJaSL-69" value="" style="endArrow=classic;html=1;rounded=0;exitX=0.5;exitY=1;exitDx=0;exitDy=0;entryX=0.5;entryY=0;entryDx=0;entryDy=0;" parent="1" source="jxiP7f9gNLaoICvCJaSL-68" target="jxiP7f9gNLaoICvCJaSL-54" edge="1">
          <mxGeometry width="50" height="50" relative="1" as="geometry">
            <mxPoint y="530" as="sourcePoint" />
            <mxPoint x="50" y="480" as="targetPoint" />
          </mxGeometry>
        </mxCell>
        <mxCell id="jxiP7f9gNLaoICvCJaSL-70" value="" style="endArrow=classic;html=1;rounded=0;exitX=0.5;exitY=1;exitDx=0;exitDy=0;entryX=0.5;entryY=0;entryDx=0;entryDy=0;" parent="1" source="jxiP7f9gNLaoICvCJaSL-68" target="jxiP7f9gNLaoICvCJaSL-50" edge="1">
          <mxGeometry width="50" height="50" relative="1" as="geometry">
            <mxPoint y="560" as="sourcePoint" />
            <mxPoint x="50" y="510" as="targetPoint" />
          </mxGeometry>
        </mxCell>
        <mxCell id="jxiP7f9gNLaoICvCJaSL-71" value="" style="endArrow=classic;html=1;rounded=0;entryX=0.5;entryY=0;entryDx=0;entryDy=0;exitX=0.5;exitY=1;exitDx=0;exitDy=0;" parent="1" source="jxiP7f9gNLaoICvCJaSL-55" target="jxiP7f9gNLaoICvCJaSL-54" edge="1">
          <mxGeometry width="50" height="50" relative="1" as="geometry">
            <mxPoint x="40" y="560" as="sourcePoint" />
            <mxPoint x="90" y="510" as="targetPoint" />
          </mxGeometry>
        </mxCell>
        <mxCell id="jxiP7f9gNLaoICvCJaSL-72" value="" style="endArrow=classic;html=1;rounded=0;exitX=0.5;exitY=1;exitDx=0;exitDy=0;entryX=0.5;entryY=0;entryDx=0;entryDy=0;" parent="1" source="jxiP7f9gNLaoICvCJaSL-68" target="jxiP7f9gNLaoICvCJaSL-48" edge="1">
          <mxGeometry width="50" height="50" relative="1" as="geometry">
            <mxPoint x="40" y="560" as="sourcePoint" />
            <mxPoint x="90" y="510" as="targetPoint" />
          </mxGeometry>
        </mxCell>
        <mxCell id="jxiP7f9gNLaoICvCJaSL-73" value="" style="endArrow=classic;html=1;rounded=0;entryX=0.5;entryY=0;entryDx=0;entryDy=0;exitX=0.5;exitY=1;exitDx=0;exitDy=0;" parent="1" source="jxiP7f9gNLaoICvCJaSL-68" target="jxiP7f9gNLaoICvCJaSL-1" edge="1">
          <mxGeometry width="50" height="50" relative="1" as="geometry">
            <mxPoint x="40" y="560" as="sourcePoint" />
            <mxPoint x="90" y="510" as="targetPoint" />
          </mxGeometry>
        </mxCell>
        <mxCell id="jxiP7f9gNLaoICvCJaSL-75" value="" style="endArrow=classic;html=1;rounded=0;entryX=0.5;entryY=0;entryDx=0;entryDy=0;exitX=0.5;exitY=1;exitDx=0;exitDy=0;" parent="1" source="jxiP7f9gNLaoICvCJaSL-68" target="jxiP7f9gNLaoICvCJaSL-24" edge="1">
          <mxGeometry width="50" height="50" relative="1" as="geometry">
            <mxPoint x="40" y="560" as="sourcePoint" />
            <mxPoint x="90" y="510" as="targetPoint" />
          </mxGeometry>
        </mxCell>
        <mxCell id="jxiP7f9gNLaoICvCJaSL-76" value="" style="endArrow=classic;html=1;rounded=0;exitX=0.5;exitY=1;exitDx=0;exitDy=0;entryX=0.5;entryY=0;entryDx=0;entryDy=0;strokeColor=#ff2600;" parent="1" source="jxiP7f9gNLaoICvCJaSL-67" target="jxiP7f9gNLaoICvCJaSL-53" edge="1">
          <mxGeometry width="50" height="50" relative="1" as="geometry">
            <mxPoint y="540" as="sourcePoint" />
            <mxPoint x="50" y="490" as="targetPoint" />
          </mxGeometry>
        </mxCell>
        <mxCell id="jxiP7f9gNLaoICvCJaSL-77" value="" style="endArrow=classic;html=1;rounded=0;exitX=0.5;exitY=1;exitDx=0;exitDy=0;entryX=0.5;entryY=0;entryDx=0;entryDy=0;strokeColor=#ff2600;" parent="1" source="jxiP7f9gNLaoICvCJaSL-67" target="jxiP7f9gNLaoICvCJaSL-23" edge="1">
          <mxGeometry width="50" height="50" relative="1" as="geometry">
            <mxPoint y="540" as="sourcePoint" />
            <mxPoint x="50" y="490" as="targetPoint" />
          </mxGeometry>
        </mxCell>
        <mxCell id="jxiP7f9gNLaoICvCJaSL-78" value="" style="endArrow=classic;html=1;rounded=0;exitX=0.5;exitY=1;exitDx=0;exitDy=0;entryX=0.5;entryY=0;entryDx=0;entryDy=0;strokeColor=#ff2600;" parent="1" source="jxiP7f9gNLaoICvCJaSL-67" target="jxiP7f9gNLaoICvCJaSL-26" edge="1">
          <mxGeometry width="50" height="50" relative="1" as="geometry">
            <mxPoint x="170" y="540" as="sourcePoint" />
            <mxPoint x="220" y="490" as="targetPoint" />
          </mxGeometry>
        </mxCell>
        <mxCell id="jxiP7f9gNLaoICvCJaSL-80" value="Пользователь Город" style="ellipse;whiteSpace=wrap;html=1;fillColor=none;" parent="1" vertex="1">
          <mxGeometry x="-740" y="990" width="170" height="170" as="geometry" />
        </mxCell>
        <mxCell id="jxiP7f9gNLaoICvCJaSL-81" value="Статья Город" style="ellipse;whiteSpace=wrap;html=1;aspect=fixed;fillColor=none;" parent="1" vertex="1">
          <mxGeometry x="-745" y="1110" width="180" height="180" as="geometry" />
        </mxCell>
        <mxCell id="jxiP7f9gNLaoICvCJaSL-84" value="" style="shape=image;verticalLabelPosition=bottom;labelBackgroundColor=default;verticalAlign=top;aspect=fixed;imageAspect=0;image=data:image/png,iVBORw0KGgoAAAANSUhEUgAAAV8AAAGxCAYAAADF+7VzAAABX2lDQ1BJQ0MgUHJvZmlsZQAAKJFtkM9LAlEQx7+bxoJGGXSKqO0UgUWo/boEm0UZHRZLrG7rc9Notce6EXXu1r2C7p28dPIqFf0BFQadg7oveCnZ5mmlVu8xzIcvM/PmfYGOgM656QWQy9tWfGle2djcUuRXeDAIP4YxqbMCVzVtlUrwndtPtQJJ5IcxMeuop3h259QurlV59v7Ekf/Wtx1f2igwyh8UU4xbNiBFiLUDmws+Ju6zaCnic8GZBhcFpxpcrtesx6PEj8QBltXTxC/EwVSLnmnhnLnPvnYQ23cZ+cQa5X6KASwjARVJLCIGhWgBM5ggNUk+/d8XqfdFsQeOQ1jYQQZZ2PVuTteEQRxDHgzjCBKHaGIIYeH3bx+b2u4VMO2jp4aaGpsDSsTdt01t5A3orQA3K1y39B93paq3sB0ONdhfAjpPXdehX8ijQO3Jdd9Lrlu7BDzPQLn6CRAkZQ6ew8ggAAAAYmVYSWZNTQAqAAAACAACARIAAwAAAAEAAQAAh2kABAAAAAEAAAAmAAAAAAADkoYABwAAABIAAABQoAIABAAAAAEAAAFfoAMABAAAAAEAAAGxAAAAAEFTQ0lJAAAAU2NyZWVuc2hvdOp5oYYAAAI9aVRYdFhNTDpjb20uYWRvYmUueG1wAAAAAAA8eDp4bXBtZXRhIHhtbG5zOng9ImFkb2JlOm5zOm1ldGEvIiB4OnhtcHRrPSJYTVAgQ29yZSA2LjAuMCI+CiAgIDxyZGY6UkRGIHhtbG5zOnJkZj0iaHR0cDovL3d3dy53My5vcmcvMTk5OS8wMi8yMi1yZGYtc3ludGF4LW5zIyI+CiAgICAgIDxyZGY6RGVzY3JpcHRpb24gcmRmOmFib3V0PSIiCiAgICAgICAgICAgIHhtbG5zOmV4aWY9Imh0dHA6Ly9ucy5hZG9iZS5jb20vZXhpZi8xLjAvIgogICAgICAgICAgICB4bWxuczp0aWZmPSJodHRwOi8vbnMuYWRvYmUuY29tL3RpZmYvMS4wLyI+CiAgICAgICAgIDxleGlmOlBpeGVsWURpbWVuc2lvbj40MzM8L2V4aWY6UGl4ZWxZRGltZW5zaW9uPgogICAgICAgICA8ZXhpZjpVc2VyQ29tbWVudD5TY3JlZW5zaG90PC9leGlmOlVzZXJDb21tZW50PgogICAgICAgICA8ZXhpZjpQaXhlbFhEaW1lbnNpb24+MzUxPC9leGlmOlBpeGVsWERpbWVuc2lvbj4KICAgICAgICAgPHRpZmY6T3JpZW50YXRpb24+MTwvdGlmZjpPcmllbnRhdGlvbj4KICAgICAgPC9yZGY6RGVzY3JpcHRpb24+CiAgIDwvcmRmOlJERj4KPC94OnhtcG1ldGE+CuqAhb8AAEAASURBVHgB7F0HfBRFF397dwkEQu8gvSNVqSqKWBAbiAWwoCj2ghXrJxYQsCAiKkpRQRRBpQmoiCAWUECkV+mh906Su/3mP2GO7XuXuyR3l3n5XXZ36pu3u29n3rxC27dvV53g+PHjTtnq6dOn+c+pkFsbqCvx0FMwkejRsGFDdefOnfoB5vHVN998oxYpUkStUaMGP956663qiRMnOFatW7dWf/75Zx2GKLt+/Xr1pZdeUoko+EP9qVOn6srGwsWYMWPUJ5980haVaL23DRo0iKl7m5mZqV5zzTXqeeedpw4fPlwdMGAAv7+TJ0/mtMC9vf3229VXXnkl+MP9XLduHb+3F154YTAdZX788UdbGkaa4WMdS5AUyHcUuPHGG6lTp060efNmKlGiBJUqVSpIg/nz5wfPxcmRI0f46euvv074SYhNCsyYMYOWLl1Ka9eupUKFCnEk69WrRxMmTOD3Gwl33XUXXXbZZcEBvPPOO8Hzyy+/nPr27Ru8zskTyXxzkrqy7ZimgM/no1q1asU0jhK58Cjw+++/c+YqGC9qd+7cmf9CaWnRokU0evRo8ng8VK1aNbr44ov5eSh1wy3jCbeCLC8pICkgKRCrFDh06BAVK1Ys2+jt37+f/vvvP1q9ejU9/PDD1K1bt2y35VZRznzdKCTzJQUkBeKGAueccw4tW7ZMh++KFSvo/fffp48//liXbnXRoUMHYrJenvXAAw8Qk+nTsWPHKDU11ap4RGly5hsR+WRlSQFJgViiwE033URjx44ltmHK0WKbqNSnTx8qXbp02Gj+888/vE7BggXDrhtKBR/bsaP09HTbsmz30DXftvKZDLQP+ZoTSDz01MlP9NCP3P1q3rx5tGbNGl3BO+64g1JSUnRp+f0iEAjYvrt4r90glPfWrY3czq9fvz4xTRbq0qULlSlThvbu3UvXXXcdMS0VR1QUReH5r776KuEHwKyXabK48i5eOBv/nDliNhqUVSQFcpoCX3zxBe3atYvOP/988vv9XPsAmguS+eY05eOj/XjRZPGB4ycnJ9tSFV9Ip3xR0alMKG1IPAQls46JRg/96CK7YnrjxPRy+WYIni2t6tdff/3FZyvYdOnZs2dw9jNx4sRgp1WqVKEWLVrQpEmT6M477+TP9yeffEIPPvggYZnKdGQJLzDT8aTrr7+eihYtSkuWLCGmG0tMT5Ss+kDj3377LUFNrVmzZnTzzTfTyJEjg33ipG7dugSZJNPh1qk6Ie+7776jSy65RKfyhvRIADv2Tu8l2nbKD+W9jQS/nKwbD5osUuabk0+AbDtHKIClZMmSJU1t//3333TFFVdQ7dq16eDBg5xRYukMXV7ocmKWvHz5cmLK91SuXDmCWtGjjz7K0x966CGCqAdH6Iliyfr8888Tdr8Bc+bMoWnTppFdH2jz7bffpqZNm9LgwYPp008/JSz7N27cyJexOEf/6POrr74y4f7BBx/w2bwpQyYkLAWk2CFhb23iDmzLli2ceRpHCKYGeR2U6AGzZ8/ms1TMADHrBKPFRsyQIUN4PhgelO0HDhzIrzGDRtuY8Qr47bffuOoRZMxgyHZ9fPTRRzRq1Chq3rw5Mesq2rFjB0FhHzNmyKgfeeQR3uS4ceP4bjyYNWbnzBqLz6yBq4T8RQE5881f9zvuR4uZLDMFJYgOjIBZaoUKFYLJWOJD7xPWaVa73QUKFODih59++onXwbFVq1a6pfisWbNoypQpfMaMQnZ9bNq0iSpWrMjbYSa3nPHyC4t/WOqjb8ymr732WosSMik/UEAy3/xwlxNojJC3YhcaJsFGaNKkCRcNQHxw4MABPsvF7jf0PK0s2SAHhjkqs/vnTUGsgJnp999/H2z6tdde4zqikOEC7PrA5h9ECgCIH5599ll+bvUP5q6QRz/zzDP077//8iIrV67k8mar8vGWhpk+ZOja38mTJ+NtGDmOrxQ75DiJZQfRogCW8jD3BAjVINF248aNiTm+4TNJMDfmyIczQDBEiBMWLlwoivIjbP/vuecegjkqNtQAxYsX55tmEBdA7qsF0d+9995r6gOMnTlw4b4Dhg0bxkUXmDFbAUQg8DMAcQZm5YMGDeLF2rRpQ7/88gsXW1jVi6c0qY0S2t2SzDc0OslSMUABbFqVLVuWdu/ercMGamd16tThTBSzLlzDIgm/U6dOcY0FYesPxoofQDjLwTlmy4CWLVsG07dt28bT8O+JJ54Inhv7QAa0ILCxh81AiB+EXjs0H7BJJ6B79+6EnxG0uBjz4u1aaqOEdsd8GRkZjssdt+UCZHAAqKXYgVsbqCfx0FMvkeghGJt+hOFfMbeO1Lt3b1PFwoUL8yW8yChfvrw4pZyyTtL2ITqDnrGVLFrk5/YR7yRU56wgWu+t1b1100YZOnQo9zqGDxZ8KOCjBW2Uxx9/nFatWsVFQZCFY9WC34cffsi1UGDuC20U0Bnn0EZhLiD5Rxfyc8jjsbKAxouxDzjL+fzzz7m/BmijwGQYH3P0DYu4//3vf0FtFLSl9XoG+mFzFpu2Wu93VnQNJ82XlJQUdL1mV1HMGqzyxRfeSV8Q9ZzaQL7EA1Q4C4lED7FkPzu67J1BO+CFF14wVQZTxssjQU8BvJt271203lure5tftFGwZ3D06FGuuw06YyMYzB8mzhAtAaD9glWNyLvooou49gvypNgBVJAQlxTAzA4zGiNA1cxtMmCsI6+jQwE3bRRokwgQ2ij4EISqjQLmpb23kK1DVg/97fbt2/PZr1UfRm0UaKTYgVYbBSqEEDNZAfrEbBuiLewbLF68mLxeLxdz4RyAlRDEYCIP/Yo8yXytqCrT4oICsDi7//77+fITqlsCsJyUkDcUCEUbpWvXrtwIBjrXb775Jrc0dNJG+eOPP7iONbRRsLEKBixU9KCNUr16dW7YAkYotFGMfQhtFFgsQhsFohGx2WmklNBGQT+oB4A2CvrRriTQtxZYhIzgJcQUWtDmYV8BIJmvlkLyPC4pAJGD0a8D5HiQ22Hz6/DhwzR+/HhufYZNNCwLsRTErvwNN9zAX34xcDhhgZwYM2ps7OHlgykzltfTp0/nmgyiLEyQobWwZ88ekcQ3+Xr06MENKb788ks+K4NaGSzqhD4xZIqY6eHDkROuCoPI5PKJ1EYJj+CS+YZHL1k6BimAjRQsFbHxhtlKpUqV6Ndff+XM8+mnn+a6v5g1YdaDzRgsEXGNjWBYmD333HP0xhtv8JFhAwnqZFWrVuVlscEHmTLqYgmK2Q80KzBjgzwPJsOYacN6DpZyYNyYJQEPbCKBMV9wwQU8DSbHUCfDhg/0izEbEjrGMUjWsFGS2ijhkUwy3/DoJUvHIAUgz4PcMC0tjTvbwQ75bbfdRmC8+MHFIBzowPoNJsCY+WLzDkwSPiBwLsx/MTxs6oGRQ1YH1TbM6ACQZ6Jd7NJjVgvA8hYA5gvHPGDsYOaYFUN3FwBHPcKY4uWXX+ZtwAsbmDq0EbRLWV4hTv9JbZTwbpxkvuHRS5aOQQq88sorQbEDmDA8hEEeB+9hMJbAbFMwSzBO7FBfddVVnFGC+RqhX79+3EKubdu2OlU1yBStLOuM9SHSQDQFEZgRM18hkwYzB0DcAGYFuXWiMF+pjWJ8EpyvpXmxM31kbhxRAEwPs1kwOOw6w4Lt7rvv5kYNYHBYFiMNpr8QS4BJG2Hfvn1cJDF37lxuGQfVIQB2tGFBhx16N8CmD8QWkBtj4wXWdmI3X0RYwI435NShMHO3/mR+fFLAh1kAlmt2AGV/6JzagVCyttL3E3Xc2kA5iYegVtYxkeiR09oH2pnjLbfcQr169eJERPBDmP0KL2YjRozgcmCYG0MtCeIHMGEtQIm+Xbt2hFkvxAwQVbz11ltcTguRA8QRADB3O8CGG3wFY9ccJsQQR1SuXJkXh6wXzBmiEohAchJgaWb3bkfrvRXt5OQ4ErZttjRj9LMHdgPtM1kOWzbxn1MhtzZQV+Khp2Ai0aNhw4Yqm/3pB5gLV0yxXWUzVZVtioXVG8ozQwFVPLfMGkpljnrCagOFmcxYZZoWwXrsY6Cy2bbKNC6CbQczo3zC5Mzqk08+adtqtN5bpreaJ/fWdmBxlCHFDgn7Wc3fA4P1ETQOMMsVooNQKYLyUI4XM2rMdrMjHoB6mXDaI/rGChGiC9G2SJfH/EcBueGW/+55vhgxQoDDkbnwsRsLg4YD9ZzyNREL45M4hEcByXzDo5csHScUwIzTOOvMa9ShDSBBUkBQQIodBCXkUVJAUkBSIBcpIJlvLhJbdiUpICkgKSAoIJmvoIQ8SgpICkgK5CIFInamLpyoi6MV7rnhTF30L44Sjyzn9rFAD6b9Y3U7ZFoOUwD33s6ZunguxNEKlVDeW3lvrSgXWlrEztSFR3ytj02rrt1UayJ1Hi7x0FM9lujhZICjx1peRZMCMLW2e++i9XzIe5v9OybFDtmnnawpKSApICmQbQpI5ptt0smKkgKSApIC2aeAZL7Zp52sKSkgKSApkG0KSOabbdLJipICkgKSAtmngGS+2aedrCkpICkgKZBtCkjmm23SyYqSApICkgLZp4APenpC7cSqGegBuuVb1dOmoT7UXpxA4qGnTn6ih37k8ipaFIAfZbt310m/V/Qfynsryspj+BSQM9/waSZrSApICkgKREwBH5SknQwk8IV0yhcYOJUJpQ2Jh6Bk1jHR6KEfnbzKDQrAL7HTewkcnPJDeW9zYxyJ2oec+SbqnZXjkhSQFIhpCkjmG9O3RyInKSApkKgUkMw3Ue+sHJekgKRATFNAMt+Yvj0SOUkBSYFEpYBkvol6Z+W4JAUkBWKaApL5xvTtkchJCkgKJCoFInamLpS4nZS2Q3HKnJGRYev4GcR3a0PioX9EY4ke0uG2/t7k1hXeSTtn6tF6PuS9zf7djNiZurBcc9IXBHp2Tp0F6m7O1L/88ksaOnSoKG46iofAybkzLH6g++gE+AgAFztwa0Pioacc6LF3715q1aqVPkNe5QoF5syZY9mPeE5nzZpF5cuXtyyDRLf3Fu/blVdeaVsf/Ti9kwIPtzJO+eg8lPfSqY28wMPZ5teWpHmTccUVV9Azzzxj2TmYJsCJcWL2nJKSYllfJO7atcvxYXRrQ+IhKJl1BD3AfMVHWp+bdXXq1CkqWLCgVVYwDW2UKVMmeG08cWtDrMzyGx5ly5Y1kopf475cffXVlnnhJI4bN06+LxqChcM/4or5Yox2X2mxjHKagWMJ5vYl9/v9tn2gf7c2JB6g0lkAPcqVK+doSeVGU7SWlpZGlSpVOtuw4cytjWjdl0TDw0DGsC/xQbR7J9FYbt2XeHxvndfgYd8KWUFSQFJAUkBSIBQKSOYbCpVkGUkBSQFJgShTQDLfKBNUNicpICkgKRAKBSTzDYVKsoykgKSApECUKSCZb5QJKpuTFJAUkBQIhQK+o0eP8p1ku8JQSXFS3wpFP86tDfTthseRI0fo2LFjtrjmFh5uY5F46J8kSY/YpQfU76AaBU0BK3B71lHH7b11ayM/Px++IkWKxIUKT9GiRSk1NdUWV6lKpH99JD0kPZzUKvF8QOcZamJ2qmJuamKgcKKp3kWqqhoOPaTYQf+OyitJAUkBSYFcoUDcGVnkClVkJyFTIJP8tJ8O0yH1GB2io+x4lI7RSTpBp/jvKPt/kp37/SplUCb/pbP/OFfZX4D90j3p5M30sfOAbb/HU49T4czCunwPeUhhKV7Fy/6plOIvSMnko4JUgFLYr5BSkIpSYSpChdhfAX5eXi1FpZXi7NrZok7XkbyQFMgBCkjmmwNETYQmwSC3qXtoSdJKygispF3qftpFB2inuo8d2Tm73sl++32HSU1X3YdsLVbMqof1lz3fzSoDq3CnMuDCTn1ktUJsWBzAnMsqJagilaEKSin2K02lPcWoSqA8T6uslKVqSgXGup3N0UWz8igpEC4FJPMNl2IJVH4H7aNtgb20kdJoo7qDNp35bWHsFcwVM1MqzgacmUCDPjOUk3Satqi7CGPFMDngI2AYa2lGADBh8SuRUohaBBpRHaUKgUFj9i1BUiA7FJDMNztUi7M6O9hsdZm6gf3W8+NqdTOtU7fSMd9JE7OJs6HlOLr7mDBln3qIFqmrs/pKZYczDBpCDjDh+ko1qsd+5yrVqS5VpoZUSzLlLGrJ/w4UkMzXgTjxmAWxwELGKP6iFbSY1tA/6WtpL2MgEqJPgVOUfuajtuFs4+yNKpyeQk2UWnSBpzFdoDRiv8ZUTil5tow8kxRgFIjYmbpw1SeOVlR1c4SOOtAHhGqLHSAffdiVEf2Lo1U70cDDrQ3RvzjmJB54+VcoG2kBY7QLPavpb2UVbaXdVl3maVoptRiVo5LsryhbxKdSCbUIFVeKUKqawq5SKCnDSwWSkh1ni9AnhVqkAIhEsv6YqFf108mMU0TJCqNIJhMopNNJ5TQdV0+xLcATdFQ5QUfU43xD8IDnCJNYH2Elzgh/RYNRPB5nW4x/qsvpT//yYKvVmSS5VaABtWS/JoFa1Cizpq082e0ZQ6Nu74tbG3g+4QMX5ezeKbc2ooUH2smN9wX92IHoXxytykWbHhE7Uw9FnxQDcdI5RL6bM3XkQy/Rrp3cwsNtLNHCA4xkfwozgGHz1jR1L209I5/cqu7m51t9u5jElm12BQWWwCw2Yb9ymGtEBLHD5hjgzFEpoHDtBCzjCyjJxO40+/OyP2gzZP35UzPJ57VfqAU8Zx3lowZksaI2P2Ny3RSm4VBdSaU6VIXpX6RznParTFOD6WfkNB03EZOpe3bQeM/PfOjAqaZSiRoqNdmvBjVT6lArpSFVZBt/ALvnnGeyf27vi1sbeE4RWAD+rZ36cspDH9HAA+046dciPxHxsH+aMWIJUaMA1K+2McaJ33+ebbTbf4j2qAcY+8yakUFFS5wfZOcnSrOZXM5NzqI2rmg0BMYnVNNsvyVMm8w2D0iAkYuNM1zbQShl7OpGMR1qdevVbfw3ieYGW26i1KZBykPUgdoE0+RJYlJAMt8cuK/YSZ8bWEJz1X9oibqW/mUbXdAeCAI2yENRiwpWkCf5hQJL2bNyo/cFxpQncvW3/DLu/DhOyXyjeNenB/6gj+hb+pkW0unMvJ+2YtleUSnDFtnlmE5rSSrFZK5FlcJsQp3JcjykZgSYrLUAkz0W5Mt+LPZTlAJ8EnlSPc2NJXYc202BwgqTkh7nv8PMmALnWKofVJm/DTajlxBdCkBm/Ju6lG5RLotuw7K1mKKAZL5RuB1r1C10b+Yb9Dt7YXIbsIl1LpMZQg+1ulKRylIJvpl03H+SM8ZdygG2CbeLljNVsz3qQc44gzg6zMALMMkrDAwKFkimomphfo5rMO/yjI3jHBZkHjaDDzCRADa5TjO2rj2eUtnGF2PiPE3JYJN9P1tsq/w/lt3IA6OB/FWCngL1lKr6BHmVcBSQzDfCWzoxMJt6ZvbjTCTCpkKqXoIZy7b3NGe75TWoYnJWcMRV6iaC7u48JurAhpxu88jJKsyhxyxGymbvjEFDTzgIRpkpZK2h9GGoh00xWJnB9BeGDMlKErtK4mk8XSlExZguRHFWojjbJPMeVql68Sp89l5KKcaOxfiWnMBLG0AT4wdzB6PP+q/S6Yx0zvwpyUPpapZ5szBzxkoA4z2azjbe2EbnafbRMH5I+DVLP3jiMHkL+fT5Z8rjI3KSaVicZh8afHj4NSsJHEIFrFaeC9xBjZmqmoTEpoBkvhHc31GBqXRf5sCwXq7sdgcmhZktGBLUmL71zAkq+2e3zbysp9tkAyIG5my61hg3oDjEJpj1Q3+2PDcPLknVA5WoilKe2GeJaRKcQ+cwCzQwM0D6mdl1MtOm4HIVnqr/dyLAAqx6CukTDVdpR1kgz6KVDKlnL608gYHJYx/gBGPMRzIgqDlN/iSVM2fxIcCHAh8frGJSTxY426A8S1gK+OBPU6hHWY0Sem9u+Vb1tGmo7xSyG2Xd8IBOIn52uDjp5wlcooGHoMck+pXuI3vGW4HNzapRBVpH2/RqVgKZMI/QV4WVmoQsCmA2KazPVqob+QydTW11AJW1qkxIAmZcLVCBaqgVqW56VWZ/dg6/N1Bq00I0nw9tuzhPYWp0+BXLzGLukK/bwYn0ExG/L+I5tesD+XjnoC9s907lJD0EXrn93op+jce8wMP+CTBiJ6+DFFjCWOpd9LrljBcGBDeol9A2zx6+8aYTAQRbyLsTMWPE0j5J9fLlPpbdwjghS+UrvKVy3o3GuWeMawNt578zE+BgBcyIK7ONyJpUiTNjMOkK3pJUm7FrfDhhFALmLUFSIKco4FMUxVHBGV8ENwVoIOdUJpQ23PCAQjh+Tv3kBh77mX5uV+UlLtOzuikHlaM0WvneKitX0sBcq7Kldx21MvMzUJXq+6oxbYfybDlejms+QGYMeSvAaokskIS8EpthP8z7iXYc3k3r0jbQpj1bKe3gTjqccZTUQgoVLlOUkoszB44lUshTJInUFIX8yWw2leynjCQ/pfv8dNrDNuG8TMbKrjPYNZbbAebNUWWGFXbLf4FDTh6x9beZdvLfbFqU1ZVmtQ8aQa4Mz2eQSZdmcmYck1IVquKtSCXZNWiJMhB94AcxSCjPOjpzeo5DacPtfQm1DRhJ2OESaht29THOUNqIFXrkNh7y0w6KhwGPe97j3rDCqJIjRWEBBrkmnLrAQgqWUtghh6MXzGrFUjLZw2ScIcL27dvpt99+o/nz59Pff/9NBw8epJo1a1Lz5s3p0not6b7zb6MaNWpQqVKlgi06MXAUCuKRrMdj67attGrzGvZbS0s3LKe1OzdQ2rFdVLZWRarSuDpVqF+ZStYsQ8eSTtEBptK249QeOl7gNHNqeYQ7ujnIDIdzclWBtoVYgw9WyKQhNTCIN3g++wcxRllfCaqTWYV9+KpwZzu4J+d76nEmLcrJo6QAKCCZbwjPAXa6xwRm0Pv+CbRc+S+EGtEpAiYqXBlCflxLqcx+53AGW+FkCSpWqGjEHf3444+E36xZs6hYsWLUtm1buuKKK+ill16ismXLuoaJyS4CVSpXIfyuanulbga+bt06WrBgAf0x9A/65tcvqWLFihyf2867njp06BDsDk7c9zLVud2MHcP8+r/0bbQr6SBtVnfSf+p27iITzDM3ARtr22kPbQ/soV/EbPoMAvgoXulpRdfQBdSOmuUmWrKvGKWAZL4ONwbyz2H+iTQk8DV3Iu5QNOQsLGchFy7vYXJFtlSFXi6WtuXY3Ig79WaLWxyVnZnUpGID23ZPsA247MKUKVPou+++oz/++IPatWtHV111FfXt25cz3+y2Ga16derUIfx69OjBm9ywYQP99NNP9Pbbb1Pv3r2pU6dOdOONN1LLli25BVgFRq+mzC8C11Tw6jUVYAzynwpfxWm0NnMLl/1uVNJoPdsE1anPRQt5h3bgwnOdfysNo4lsu68sPejvQo95u3LHQg7VZFYCU0AyX4ubi530MYGZ9KL/o2y/pG2VpsylYCO+qQOVJ0RK4Bs5jOFmnsigQgX0jMKIRhpjGNGERYsW0dixY2nmzJnUvn17uv322+mjjz5ydVgSTRyy01atWrUIPzBdBFGdPHky9e/fn7Zu3Uq33nor3XHHHbYBIBFCCA5r8AuqmjHvaQB8WDewGTJ+cCIP+e+GzG2004OIHfvZrPqQ5YZqdsZgrIPZ8Yv+4fSufzwN8z1NXT2XG4vI63xAAcl8DTd5hW8TXZ/xAv3DfDKEC5jVdqK29DTdRhcmNbGtjkhmuQVguCNHjuRMFrPJ9957L9i1nSvBYIEYO4FLSTBb/Hbs2EHjxo3jIommTZvytCuvvDJkjBHDDYYMWmOGE6eZnu+ZjyI25OD4CL6Q4UwdHuQgxthyOI38TNoDOTTkzkL0sZuVhTpgOID2umW+RH94l9JQ71PhVJVlE4ACkvlqbuKb/rH0YonhlMn8w4YD0DDo7rmCXvDeRbUy7BXww2kzkrKnT5+md999l0aPHk0dO3akDz74gBo2bBhJkzFXF7LgZ555hv9mzGDy+PffpwEDBtDDDz9MN910U8T4QhUta7XCXDxmKYfwNtNOMCOLEtb3GLPptSc30+YCu2gtEzPA7PwfdQ2tZBaITlZu7zPRVhE2S+/vfSBivGUD8UOBiJ2pi91sqJTYQTScELs5U48Uj6e879NwZZLdECzTwXRvVNvRC4E72Q53ZV4GCvKAnKaHFU1BoyFDhnDxQteuXbmsFJtmAKtZrlUbvLDmX6ROuyO9LwIVJzwgt27VqhVhsw6ilIEDB9Jjjz2mY8K5gQdwrXKyDNVVqzCXkC0F6nRYOUazmLOlbzxzaKYyn2kfmz/uA/yf01XpLel8tR53cB6sbHPiRA9Ucbu3oEcsOFPPrfsSCj1At9x8byN2pi4s15x0/TCoSJ0huzlTDxWPpEJZzrqBk4Bpgd9peGbojBfihZs97amvtxc1UKqLZvgxVDwipQc607YxdOhQGjZsGN111120cuVKgh4oIKfvC/rQ4oFrLeQmPdq0aUP4rVq1im/QjRgxgp5//nm6+uqrgxZjeUEPBK7vwfQc8FufvpX+R5/Q18wERwtQbXslaTTN9g3jyU40RYFInZjjvsSCM/XcfD6caJoXeGQZvmufggQ+hwFE6fQOdEPms1x1DDI7wKeB8IwierNd6q99/U2MNy9IN2nSJGrSpAlBRxe6uS+88AIVKKCxFsgLpPK4zwYNGnCRC0QvYMA333wzrV59JgBmHuMGS7ox9DK97r3fhMncwD/Z3uA1NSYTYp4C+UrmO0P5k7tUnBz4lfCDocLtnqsYCz4e8o3CrPchz40hl8+pgps2baLXXnuNLx2/+uorAsORoKcAjEPwcYKGBLQ7oDHRr18/faE8unrBeyd9FfiJ4JFOAOTCP6oLqCu1F0nymMAUyFcz36nK77pbCdlbCaUo3e25TpfudNFePZ9qM2OHvATIdTt37sz1XSdOnCgZr8vNAK0WL15MXq+XrxJgUJLXgP2CGzyXmNBA5BMJ+YMC+Wbmi53o2coZG37NvcULAJ3cEr6iTPwwjXae3ktNC9alq5Q2XA3IqD50TyB0Rq3pJiqn69ev54YGMPmFiKFEiRJRaTe/NPLiiy/yj9ZTTz3FLfrefPPNPB36eUo9U///Btab0mRCYlIg38x8fwgs4H5UtbcRlmUXKo150lWe1lyO+9WhvlznEh6xjIwXSvsd1FbaJnLt/LPPPqNrrrmG7rvvPq5Wld/lutklfLNmzeiXX37hBhvQkMCMOK+gqVLb1PUa5hRfQv6gQL6Z+U4KzDXd0euVtmzxZ/39QYQKI3Rms2SEN89tgO7q3r17ucMbrVOb3MYjkfqD74qLLrqIbrvtNnryySf5Ry23x1eVhX7C86fVAYYxBww8JCQ+Baw5T4KNG7NYqJMZoYvnUmMSv8bDPzMw35TXjRlS5CbArwEc3VSuXJkmTJig8yaWm3gkal/QD4bZ9Zw5c+jRRx/N9WHCkANBTbUgvKlp0+R5YlLAd/ToUe65ym54UOaGTqEdwBs+QOiVWpVzawN13PA4coRFyj12zBZXJzzmJv9Lh4sd06FWRC1E9XdVZB6x0nTpwOOvvavoQLEjuvTCakFefk/6nlyhB3wwvPHGG/Tyyy9zE9q0ND2ebjR1oocYmFsbKOd2X9zaiAc84LQHm5iwBoSlnNPqItr0KF4ylfZ69d7X1h/YRMkHNWZ14oZpjtHAAwYFu3btIr/fbPSBrtzuLcpEAw+0k9P8w20sefGc+mAvX6mStbkkiJJdf62oK8CtDZQDc3HCA05VUlNTbcsISxkrJfpfM8eYgjxe521L1SpWFSgGj8Djr5LrTD5bO3hb8/JuY3HCQ3Ti1saoUaM4M/j+++9tNRnc2ogGHsDX7b4kCh5vvfUW1w2GZSBU9+AvwgqiTY/UDOZgKWv+EuyuSKliVCnF/p1EwWjgAcOC8uXL2zomcru30cID7Vi9t0gHJCoeCS92gAgBOr1G6OJpZ0wKXs8JmDdhrvO0Debn5AlMY7/99lv+k7q7OUlpc9vdunXj5sm33HIL/fyz3gLNXDo6KVax3DKZmExC4lMg4ZkvwqnDM5UW4KS8o6eNNil4fkw5yZ2hBBPOnFyutDAmRf0a1mkrVqwgOIrBLF9C7lMAcmD4On7kkUe4gUZOY+BhRjtGQCRjCYlPgYTXdvgm8IvpLoLxwqWgFSxKWmvaba6pVOJhyK3KRysNuqeQaX/xxRfRalK2k00KwAMcHLjDIg7iG4gicgoQJcUICCEvIfEpkNDMFyo8k1SzyOEmT3vbO/uvz6zkfolynm35aGSA8cLr0scffxyN5mQbUaBAlSpVuOP5a6+9lm8GQRSRE3CKTpuaLZAH6owmJGRCjlMgoZnv7+pSU/gfzCqu9VwUJCwMKYqwebCAlcyZuhFaenLObwJEDZjxSsZrpHreX2Mzatq0aTzMUsGCBen666+POlInLZhvQTX3dcmjPjDZoCsFElrmO9FC5NCBWbKB2X4Z+JEqZ1xPRdPbU8OMW7nja1BrZdJmE9EQIywnAJtrCIcjGW9OUDc6bVaoUIHLfuG4/ddfzauoSHs5opqdOhVRzk4GIm1f1o9dCkTsTF04HxZHq6G6OTJGHejhQaXEDpCPPuzKiP7FESKHb3xmeW+nzLY0KnMK9fIMCHa1Ut1IN6T3oV8DH9I2755gOk5ggVTzZAU2P87CzW0son9x1DV25gJtfP7551y5H163rMbkRo9o4WGFnzZN4kFcFQvm3QhfNHz4cEefGuHel6M+8zPvO6HQCdWcHu37EgvO1MV7Io7aMYpzN5qiXDw+pxE7Uw9FnxTEcXJkjHw359BuztSNeMA36q7M/Wg6CBA5XFCgCbXM6BlMEydrlC00Pnk2qX79TnNVpTyVLlRSFONHp7EY8dBVPHMBNaZPPvmE5s2bZ0sXN3qgqUjxcGsD+RIPUIG4k3aEY3r88cd5aHsnbZRQ7wtEDpnpegMHmK8XTWFrs0LOs99o3JdYcKYeyvsC+ucGPdCPk75xtPFIWLHD+MAs0EoHV6gt6W3/OJPDHFHIyp9DKO4jxwRmUJOM26lqRmcawmIUOAFMhuFLAMEfYeAiIX4o0KFDB7rzzjuDYe0jxdxS5KDZf4i0fVk/timQkMwXfnqtVMxaqPXp88B02zvyt7rKlFdHqWJK0yYMYeG/78x8jZapG2iruouepQ9YpIKZ2iK68549e/JAj9KAQkeWuLlAuPratWvziCGRIn2M+dkzQhGlsDFJXicoBRKS+f4U+Iv2M+9QWoBe70baYRm8UJRLt9C5rEn2Zp4L1BX0jP99UT14HGvDfOGdDG4h8ZMQvxQYNGgQLV26lMaPHx/RIKyeN6njGxFJ46pyQqqaQZPBCG08jegbmmNMdr2GzNcKIK/DjNcqEm1hSjFVwYYN3EJCbmi1wWaqIBNimgKQ2V966aXUsmVLqlGjRrZwhbc9IySx4FYS8gcFEm7mi6XcJAtfDnvUAyxSm3mZ53abqykVLYs87/+Q1qlbLfPakd4oAxEo4KEMYc0lJAYF4AQKqoJYzWQXrGa+iK0tIX9QIG6Y77aS+2lJm500NjDTJFLQ3qpvmW4vQgYZYb26zZgU0nU15vDaCL+qS2iof4IxmV8jwOaN1E6X17t3b0LIGidXhboK8iIuKNClSxeqV68ev7fZQVjOfLNDtcSp44MfS6HuYTUs6N+55VvV06ahPtzXOYETHs/QMBp67SRefU7mqyyYTwr1o/vpIeoSbFLoCY6macE07ckpStdehnQOY4zC6QVYzbN1D/uP0V0ZrzHXJ3qVNNHgRWpjquAvFawD/7DVqlWjq6++OkjHSOmBvmLhvkg8iCD/Pe+886h9+/bUuHHjsO6L1cyXzryPkbwvod4XvHPQj7V7v+VzCkqehWjTI+ZnvhNoNg0l/SwT4oMnmFLXLfQS21Y76yR9A22n32jpWWpFeFaZyplaeMn7CW2mnaZ0kXCnerU4pY0bN3LrNbygEhKXAhA/PP/882EP0GpzLTuThLA7lhViggI+eJB3UizGDMspX4zCqUwobdjhMSJjqsnZtOhzCs2jVcom+s43kOpQZfqMZtjOSEUdHEuy0C01mKeyRepqbbLpvJqnAiX7ztrZQ4tiNH1vKicSijPDZTjt8Xl8nGZ9+/alfv36mfR5I6GH6CuUNlA2p+6LxENQgAjOd6ZPn06ffvopt4JzormohTJFVKZWZnBqlq5kvW9ubdi9L6L9UJ4PtAFjDbu+Qm3Drj5wCaUNlIu0jWjQI7fxiPmZ72J1DWhiC5Dltsq4h4bTJBpLP9iW02b08z2gvbQ9r67ZbINP4Lv8r9uWRcad3quZQKQALwOzYZhv5pQ3LEdEZGauU6B///70zjvvEMJdhQpW3susvJyF2p4sF18UiGnmC3WuUDQUsMHWm96lfQan6Va34hKlGd3v6ey4aSfq1Tij4wv5bo/MV0we0kQ5HLHR9oDnrAz6lVdeoVdffVVbRJ4nMAVKlixJjz32GIEJhwpWkbCl2CFU6sV/uZhmvnZqN0XZllt2oBKVoS99r3NnOftUfXQLq/ZqnJn5DvZ/RT8EFlgVCaZd7mlB9ZSq/HrYsGEEU1RpxRYkT744QfSL33//nVauXBnSeFOUrFWStvBJ1ezfV5svzxOHAjHNfBFa20deE7UXJI2ihkpNU7pTQgWlNE31v0kV2REzavjxdYOayjm0kJkcQ6fXDR713MKLYPcY+rzw0ysh/1EAriexARcKWEVTsVKTDKUtWSb+KBDTzBfktJKLVVHK0V+MAd/vuSEkirdQGtCfvhFUT82ame5S9d7OrBqBGKEMFadumf9jeyJmSyRtHSwfRUy4wYMH802X4sWLa4vI83xCgc6dO9P27dvp77//dh0xnhs8Z1qA2MFOjVFbTp7HPwXigPmaLX4Q9wqzhuG+Z+lT3/9s78I5Sll63/sU/Zk0grTGErvpgG0dkYEZ8mP+wbRRTRNJtseWyrl8hn769GkaM2YMPfHEE7ZlZUbiUwBhod59913XgYLxWsl9sTKTkPgUiNiZulDQhkqJHUTiDDnDy9rVTw7o9MlTzNl0ltHGTM+f8Hiug6pUnj7zv0TN1XpcvpvOHmaYSQg8tig7yEKaoWtjJ5sdT1Rn69LsLi7xN6UTGSdoyBCme8xiffn9fkf/DQIPu/aQHqlz6Jy+LwJ3t7HkRzxgcAHRw19//UWNGjUSpOJHIz1SvAXopKJntgdOHeKTC11Fw0U0no9YcKZupIdhmPzS7RlDoWjQA+3kFB9D2wDtWCJ2pi4scZz09NBpdpwhIxrF8XS9qTBmC+VSSnOmCt8K32aYneX08d1B7ZKbo1sTAI+DAWaYYf+t4HXQd6jQuUA7KsRCv8B5DjZc0EdO0MOIjxNNc/K+SDwKGUmgu8Z9gebD6NGjTSGijPclNaMQHVD16mmBgkq23hcdEuzC7fmIBWfqRnoYxyCuncaCMpE6l88LPAxzRjHU2DhiU8zIBGHyi9A+gFf8I01h3sspJeluz3WOA9jFnOxECxBW/jylLo0dO5Y6duxIUtYbLcrGdztYASFSye7dux0HUuiMXri2kHEmrM2T54lDgZhmvlj6G6GkUpQnrVD/o68DPxuz6WnPbZZyNG3Bneo+7WVE5909V/L6I0eOpHvvvTeitmTlxKJAr169aNSoUY6DsnI/Gopuu2OjMjMuKBDTzHezavahUIXJcwEv+D8yzYrLMcPhh703uRI+FGMMbSNWKkHIhwgEs+xFixbxJV7Dhg211eR5PqfA3XffzQOlOpHBmvnqRW1O9WVe/FIgtpkvizxhBGgt/Kb+S9MCvxuz6DnqETTvNWVqEg4yLd9QoTJTa2uu1Lcs3sHTimCCDJFDjx49LMvIxPxLgRIlSlDr1q1p5syZtkQorBQ05UldXxNJEjIhppnvWgtn5WC+fTKHmW5GFeaB7B5ylvWKShmqy27bmYLw0/Ce9wn6Q7X2lNbb042XxMvVvXt30bw8SgoEKYCYb1999VXw2niSyvYwjKD11GfMk9eJQ4GYZr6Q6xoBaYidZoRXqBdjlUnGZMvrAkqyZbo2ESKF0b6XaD7ry2+h+QALO8x8p0yZwn25auvKc0kBQQGYmS9YsICgA24F8LBnhEMK08aRkPAUiHHmu9F0A6zEDU2U2tSdrjCVtUuAjwc36O99gDp5LqaR/imWRft4b+cy3++++45uvPFGyzIyUVIAFIDLSXi5swKxgazNC0cspq0nz+OLAr6jR49SWlqaLdZQXoYOnR3AGz4A/jTtwK0N1DPisdtzkHaVMms7WJn69jnYjfalZ2kwhILHuSksHHyqHbZE95+8nnocu5w+KjiBDhYxy4eTmYFH210NKI1Zv/322288PpugYU7Rw4itG00lHnqK5SU9LrzwQr4v0LZtWxaoQv+++BBr1fAsbj25g9L227+TGJnxfdGPNsvowO29hUHBrl27uFGQsT6u3Z4xlIkGHmgnlPcW5ewgHvHwFSlShBAM0A4QaddJwVlYqDgZFbi1gb7BvLR4/BlY42oIgXodPK3p1rLXBEOhhILHgywGxuCMCbTbRt/3uaI9qVKxCjQpg23qZb0r6CoI53nqUbWKVenHH3/kIgct3jlFj2DnZ07caCrx0FMsL+mBlREiXeA5MeJRO1DN9JwfK3SaKpWwfycxMuP7oh8tcQtLt/cWhgXly5fnP2N9XLs9YygTDTzQTijvLcrZQTziEbNihz/UZXZ0DqbD69nb3keD16GewFBjum8w1WJey4xQSC1ICBcP5+l2OLT0NODVwHyvuuoqYxPyWlLARIGLLrqIZs2aZUqHeqQRQvE9Yqwjr+OPAjHLfGcHFrlS817mFD1c15Ki0fOVevSht4+4DB5r+StxWW6ausfWuxS8pAHwMl1xReiy5mAn8iTfUQDPyezZZl8h5ZVSJlrsVMziNlMhmRD3FIhJ5rtF3UVWmg5aaiNe2uu++7RJYZ+vUbeY6tTOzJoN11Oqcd+/pgIsARt8cBtYrFgx/rMqI9MkBbQUuPTSS2nOnDnaJH4O96hG2E57jEnyOgEpEJPM93sLAwoj7V/13kulmb/dSGC1uslUvbY/i/nC1d/Xvv6m/CTmPBIRK7DRhg0UCZICoVAAslV4tDLGeMMkAmIwLcCnL8ReEhKbAjHJfKeo8xyp3ojp2IZiRuzYCMtcTZtNRWplnt3osIqiUVOtRGDA8+fPpwsuuMBUXyZICthRAM8LdH6NUIXtMRhhs2q27jSWkdfxTYGYY77QcZwTWGxLVRg/fMScqGOzLVKwFDucmfmibav8usTU1BggUkGrVq34ufwnKRAKBfC8wA+IEbRRskXeOhaVW0JiUyBiZ+rC+bA4WpFL60DYKh9p0CmEasv3ym+U6fXbFaMegY7U7GQt5mxSH4NN9C+OVg1o8TimnKRdXv3GBma6FU+XCjpCX+1hRh4GHl81oxyd8J+g/fv3U2pqarCs6E/0L44iXXvU4qFN154LemjTtOdubYj+xVFbV5y7tYFyEg9BraxjJPQ499xz6dtvv6VTp07pnHbX8FQwPWcr0jfQiYC9WCsSPDASPBex4ExdPJ/iqKd21lWiPqcRO1M36i1aEQ9pTjqHyBfOkH/PZCpmAaSYofDRZBpS6gkmIdPLyFAyXDxWw29Ehr4PzEBSfAWDuG7P3GfCpa6vGq1fu55HKLAaU7h46DE4eyXocTbFfGbVvygl8RCUyDrGAj1atmxJ69ato4IF2Y5C8lkT94aBWiZd342+HVTIZ37Oxaii8XzEgjP1WLgvoGle4GGY14lbm3fHRepq284vn1STbbEVsc0PJwNRMIxQR8kSKYj0rUzrwghV1HI8NLh0H2mkjLwOhQKFCxc2bbrVNTx3aMdK5BVK+7JM/FAg5pivnYL5JevqU83VZoX07JJ6g7rdVLW2UlmXtov0Yglkwi/EmjVrqF69erqy8kJSIBQK1K1bl9auXasrWl+prrvGxVqmBmnl0MlUUCbELQVijvk2sHgQWzKjhm4L20SVyFZRiWsy1qqFg6rZr0MpKkYbNmyg2rVra4vKc0mBkChQq1Yt+u+//3Rly7D1HH5aQITu9XLTTUuShDuPOeY7yPsIM7g862avFQvLPj1pMPn80UV1o4UqTw0Wj00L6UahMMssqCbTpk2bqEaNGtqi8lxSICQKVK9enTZv3mwq29BT05TmZmhkqiAT4ooC0eVoURh6M6UOrUueSN/4BtBs3zD6M2lExMYUVmhtsoiSgWCYWsDswwjQ8YWmQ6lSZrNQY1l5LSlgpEDlypVp2zazGllDxfwxX6EybRsJCUsBXyyODEv7Gz2X5hhqkKXtUPea2q/KomTsZ7ZFgGN0ktkZ6ZkvrN7gTtLJ/Z2pUZkgKaChQIUKFWjnTnNswkYK03gwwDJ1gyFFXiYSBXzwLyrULKwGBv07t3yreto01If7OidwwwM6ifjZ4eKkJyj6FXhso92mzQzI3DzpzIPkGXpsI7OmQ1kqwV+cMmXKRAUPgZfVUeBhlYe0WLkvEg/9HXKjB1ZMCCdvfI7rnTHe0ba2LLDeVE7kR+P5QBvQFzbiIvoQ74u4tjpGAw+rdrVpiYqHM0fUUiCBzrdZOC6pzGLAacFK6wKRZvcc2kslS0ZP60LbJ17czz77jCfBOTR8LQOgz4tYYPkZduzYQVOnTtWRADRx0nXWFY6Ri+LFi9OhQ2a/DedSDYL1pqpxIL2JdhLCyFtFOI6R4Ug0IqCAD0torcK3sS0wBKd8Ud6pTChtuOEBhXD8nPoBLk75Ao99gcMmpfZzPGUp2ZfMRQpo42jgpKkMfEF0rd2fLqha3LGfUPEQtBNHzEIefvhh7ngbMb9gCYVIAwhVdNddd4li/CjGoku0uAiFHhbVgklu9yW38ICGyauvvkoPPfRQEDev1xu8D7mFR07RoyQTaVXPqEhaLRy21qN1SdsJm85GiAYeaAPGGnbPSCg0jQYeGJsdDshLVDzy5cx3p2rW363AtvW0cMxgvizytqfso7XXe8Vljhz/97//0YEDB3jkg1WrVnHmKzqCeSr8SlStWpXuvfde/vIsXbqU/vjjD1GE2rRpQ1WqVOEzxZ49ewbTcbJ48WKaMGECFS1alG677TaqVq0a97Y1evRovhF0ySWXUMeOHbkuKvzPYpbWpEkTgjNwuNDEi4DZOfBCH5h9Llu2jP755x9dP2g7JSWFPvnkE767365dOx7LDIWmT59OW7ZsCZa/+uqreYBJuOm87LLLgunGE6j39e3bV5eMOmPGjKFjx45Rt27dqHHjxvTTTz/xMnDhWLp0abr//vv5yw0z1REjRujGiYLQPpgxYwZffoMJNG/enGCNltvQmMl9tcwX/UPua8V8cxs32V/0KRBz2g7RH6K5RSvjCaNT66M2zBetHS2n34gz95AzKe+++y4NGjSIzjvvPEK4+gcffJB3BCb5/fff81hckydPpl9++YUOHjxIYOJawCwafmXhY2Dfvn2cKSG/a9eu9Ndff1HTpk3p8ccfpy+++II7gPnyyy+5/wowMTBTwAcffMCZN5jk3LlzqX///lwWD3k88vAhwDmgV69e9PPPP9P555/PmaYQqXz00Ue0evVqju+AAQNo69atvD+nEOu8QcM/iGbQNuSO2MjCBwIGDJ9++indcccdBCtEfBRuv/12XhNjMI4TGStWrKBRo0ZxfMCEf/jhB0NP0b3EbNEKwHyNIDfdjBRJnOt8OfPdZTHzLa/o5bgH1CO2dzn1RAHbvJzMGDlyJH3++ed8ZoYZKhjOhx9+yGeNYKqPPvoo7d17VosDvmOHDx9OBQoUIMw8IW8Ew8QMFrrK8DGwZ88enoZ6KIcyb731Ft1999181ghGjeW9cIWIWSrawkyzXLlyPIYXXCXiB0bbuXNnPnPGjHns2LG8bcyy77nnHs60IT7BBgoYYevWrQkMXgBm0MAX+F1zzTV8di7yrI7oD57CXnzxRe7gCFoE33zzDS/68ssv8z46derEZeeYac+bN4/TRztOMGbgevHFF/OPGWb2dmHerXDIThqW+hAx4agFS+YbYBoPObvQ0qIgz3ORAvly5ruTmMMcAxjFDlYbbqJKmb2p4jRXj5itwik3AAwNACZ4+PBhW71jMFgwJYgOAJg1g0FhtowZKupCewMMCQCGin4AmJ1+/fXXnGmBYYJhTJs2jbp06cIZKRiVHRw/fpxnQZwxZMgQWrhwIbVo0YKnQU+6RIkSpqpY8gMPzLQRbt0NwDS1wUsrVqzIZ/yoV7ZsWV4dnuewcYkxQQRhNc6NGzcS9G9zCzDzxWzdCFbMdzkTO0hITArkS+ZrPfPVG01sZzHc7KDMDntvU3Z1opEO5oVlMQAyXjAYaF5gxgjLKSOAQWOm2adPHz6bxLIfs9pnn32Wxo8fz0UVmD1j1oulNwDtg0EDEKkDMtZx48ZxGS2YFJbnmK2+9957XO7MC1r8Q7tgethAhJz18ssv56Wwibh+/Xo655xzTLXgLwMy6meeeYb+/fdfU74xAbNyyHfxAfL7/Xw8kPkCMCsGQMYN2bMQtViNE2WbNWvGy+fGP3z0sHlsBBj5FKKCumT4t96m7talyYvEoEC+FDtYhWgxRpG18mgmbnmJrbkndtDKBwcOHMiX9B9//DF3TThx4kR67LHHOGMUUTVEeRwRThtMB+IHMD9sSCHaMhgvGCBkwpgZgqGiPhg4mCNknhAzYGMO4ZLgZxnLd2x4QT6MTTYwV8zCEcF5yZIlJuYF5gKmjRksNgeBAzbaMAOHyAHevQAQaQBQXvSHGS1k226ATTHgVbNmTd4eZLwYI+Th+IigL4hXMD6sAEA34zghqsEY0Q7KCLEN6CVo6oZHuPlYMVjpvTN9HhYQtgb9ra7SNQm5b2WLWG+6QvIi7iigsIdTFUs0K+yxQ4yZgx1gOQpwUhVxawP1IXt0wgOyTngTwwaNFYSDR2lfR6Y9eVrXzG7/dEpVmR7vGTyq+bpYxtEqd6I4Xfv0OTR06FBdfXERDh6ijtVR4GHMw6wJYgTMKjGzxaYT7o/xZbbDA/Wx8Qbmh3sm7i3knBAHgKkKBo6+rfBAfTAqyIexsYejto4WZ+CHdrGsB6MFY0V5LUT6fICx4ydm05jtQzSCzTiIN6ALLOiB5b52nNgU7N69O9eyEHj06NGDbxZCDmwEK3poy4g2tGnac+ABbQqsVqzgYc/b9Jkna3Uj8l8L3EtPBbqLS36MBh4XXnghXy1A1GQFbmNBnWjggXZymn+4jUU8H7mJR8TO1MVL74Q0iOumDO/mHBr56MuunVDxUAp56WS6nvEms6hsZVOyxA7oB2X2ppsV4TGOc09VZapZxyLGw24c6APgRA/MQDEbRRt27TjRA561AKINnKMdKzmsFR5Gp0J2OKBd4IF2xfNhV9YuHW0ArPDIysnCHR8i0QaYPD4OWs9zWnpox/ncc88RZMWiLo5YEeBjIdJEP254iHJW9UQe8MCHyq5MM389+syvZ75rfFtNjtWd6CH6susD+cADqw18fJ3KOeWhnWjggXbE84FzK0hEPPKd2MHKTWRJ5awXNdz43wNLre4/T2vqr01rDplDgNtWkBm5TgFoTID5hgJCRqwtKzYntWnROodsWnwIrNpEcFgjyE03I0US49os9U+McdmO4jBzmWOEYqTXXvhBnW8sErxuk9w4qA0QTJQnMUUBqKoJrYaYQowhA60LJ494jTxm5ruWRV3JIHvNklgbo8QnNArkO+Z7hFnLG6Eos57XwsyANfOF7X3b1POC6kzaOvJcUiAUCsCpjp2MFfVLMwdPxs1feNezCnsVSn+yTOxSIP9ysJh6AABAAElEQVQxX9WC+SpnmW+aZy+tVjdb3jHE2iqiFrLdXLKsJBMlBTQUgAYKZMxO0ECtZspeqW4ypcmE+KZAQjPfU8wj76P+d6hSxrXUPOMumqb8zr1EGW9ZYY1u5dwC9vqlLc84OIFiv5VDbGO78lpSwEgBmFLDJ4YT1Kdqpmw58zWRJO4TEpr59sx8nYb5JzLH6ftosbqGbvW+Qn+qy003TavYPi/JfrOthVKf18VuvzEOl6lRmSApYEEB6B1bGcRoi9YKmA1QEFBTQmJRIGGZ71/qShofmKW7W3DRN9I/RZeGC8F8kf9Hkpk5iwqtPOfy0zp16nAjBZEuj5ICoVIAxi1C1c+uTh0Lx+py5mtHrfhN90EJHnIoO7ByAKItK2zU7ZTsUdatDZRxwwNK9DAjtcPViMfbRcayaJdoWQ8w1zRC4EQmpR1No6VJG+hQcbM2BMojfFCZnYVpT3qWMQjMe+FkxghGPIz5uI4GPdzakHjoKR8r9IArTpiE2z3HwLpEgD24BruH1f7NlLbn7Hvq9r6E8nzA0g4GM1B/swK3NlAnGnignZzmH25jyYvnwwdLKa1zEhBCC1pFfG26OA/FMsStDbSFh9EJDyjRwxTWrowWD8h6f0z/W6DoeixRuDhVKlqJPvezmbL1c0jNPHWpWsWq3DABHsXgdtEKFy0edh1Hgx5ubUg89NSPBXpg8gDLQphlOxkVFGdWlIgXiOdYwFHPCUqtVIxFN8xSi3R7X0J5PqBvDFyEsybRlzi6tYFy0cAD7TjRI1HxSEixwy+BRWx+ewL3NCRIZhGJAb+oi23LC5EDCkBmh40TCZIC4VAAPjBCMeCASmNFpYypaexdSEgcCiQk852h/hnWHUI4+Ew25V0QyPLsZVXZGE0Am27r1q2zKirTJAUsKbBo0aKgxzjLAprESmRmvmkWEbc1VeRpnFEgIZnvj4EFYd0GL/NWvURda6mGJhpqpTQUp/wIJ97CwbguQ15ICthQAM9LqOGJKlnNfJmrJwmJQ4GEY75wBblB3R7WHUJQFyd/DmjM+DLA3aA2blpYHcrC+ZICEDsIh/JuBKiglDYV2a0eMKXJhPilQMIx3zkOclu72wQ/qr+p9vq9XpaPDRAtwN3gr7/+qk2S55ICthRYuXKlq4qZtrLW8EekW5nGizx5jD8KJBzznRewt1Czuz1gvvMtjC9EeWyAGAGu+GAmipDmEiQF3CiAoKbt27d3KxbML0gFgufiZGLgFxoRmEJWzqFEGXmMHwr4oP8GVQ47gBNiJxBxvMTRqqxbG6jjhgfy0YcdrqL/eQWXWKHgmLYjcw/tUszh5EUlbMYdOHGIz361Y4HKGaIzIIQ7vE5N9PxCGwNp1DHQhs7PrCeqm47aNkyZZxLc6OHWhqCHOFr149YG6kg89JTLLj0QXQNBPREpBOB2X3iUIcPUCFZu92UOoP70Kc3NGGL7LqB9t3uL/uFYH+Xs3im3NtBPdumBugBBB3HMStX/T1Q8InamHor+JEgZqTNkOG2GXqJdO8BjDx2kDRSevBe4rfJuJmbc5ggHU45TTSUrAoPA4frrr+cv1MO9H6HOmc/RrADTLWYvzCAaR5/5/kd3eDratinasCsQqZPq3LovwN9pLBIP4gwX5uiI1hwKPY4pJ2mFjznSsXkmb/ReGrETc+ARC87UQ6GH2zOG/Hh8XwzfVgwjfmEB2auKOY1qaWC9UzbPW6H+ZyqDoIswF/3oxDdZjPdMCZgpP5L5NvMc7LxqMDUoExKSAlOnTrW0hjQOViWV+yKp7+lOXwZ+NGYHr5sqdYLn8iR+KZBQzHd+Npmvlcmx8ZbCV4QVIPDiBwe+NmVhc2RmIDx9Y1MjMiEhKDB58mQeoNNpMDCguCzzEe6F74ByxKko9fEPo+NKlvjCsaDMjGkKJBTz/ZtW5RixuUjBovXrb+pE60vutMghWqiutkyXifmHApCnInx9u3btbAcNj3stM3vSnIC9haW28i51P00qOE+bJM/jkAIJw3yxKbaY1phuAYJjRgPwgmxTd5uaSm1ehgI+1ZSOhM2qNVO2LJyHiXiZ4UD+NNs2lBBdCnz99dc8krJdqxMDs6ltxv0UrvXaL8n/2DUp0+OEAllODeIEWSc0V9BGUzh4HpJFKUkr1Y1OVUPKgzwOqj4PUCdd+f/Us56mdBnsAkwtlgFj6pX5Bo0KTOVo4kN1vlKPLvQ0pguURtSG/SRERoFx48bR4MGDLRt5n/ma7u0fzO6C9cfbstKZRL4h51RA5sU8BRKG+S60EDm09DSg/erhqN2Er5l/YCPz3eFgbx/r+piTlF+DjBdEQqww6DvP95/1aVylZDkmi2xBHTyt6WrPBVSEeT+WEBoFli1bRnBVaBUh+V3/V/Sk/z3LhqBX7saQd3r2c38kPmYaLyE+KeDDwyHUPayGAP07t3yreto01HcKl42ybnhAJxE/O1wWBph81SBEOT9Ql+ZR+EYXWty153+rq2i9fxvVT68eTN5D9iafJ9XTlvhGgx7RuC9rA1vJ7d3d6t1Nnwa+578Upvh/C11Gz1MPqk5ZcciigUes0CPaeIwYMYLuuOMO3TMAer3nmUAv0PDgM6Q9aUZ1qIA/iRZ4rTd4RVkw573pB6gUczJpBaHcF7xz0NO1e6eiTQ87PK3StWmJioeBXWmHHF/nixTz5lYLasDiEqdkeyAFLOTFn3mn69o7zryu2oHb7MWuXm6lXxDQOwty6/ckkwp/TjOoCd1BI8gcEcStfn7Kh5PxH374gW699VbdsEd4ptILHmvGewNdQkPocfrLG9rGcSAb4godMvIiTynggwd5J0fG+II65QvsncqE0oYbHlAI93q9lricYAxwTfoWgUrw2Ca5EY3LZPqSNsrqwYIWJ1j6PeW9jd7wf6bLHef7id5Mfoyx5SyJTSaiANg4YOdjStL7hEBj0aBHKG2gL6f7cknmefS+9ym+/IWFXqiAjblH6B1a691KA30POvYh2nTCI5SxuD0fobQBXHILj5EjR1LPnj11/X0XmEtPZg4VJNEd7/RcQ6N9L3J1MzUQmgy4UHIK8zhifr7QcCj0AE1hnGBHk1DbsKsfKh4oF2kb8fZ8YMwJMfP9h7mD9Bs4bDWlAmHDLbsz39pKZXrC24092nptib10iCYHzjrUOa3aawjE+swXD8Aj3ptpWdI46uS5GJdhATaM+nk+c62DexPrm4+ugwizwKhRo+iRRx4J1lrIRFa3Z/ZllDDPBO7xXM8Z7zeBOTQ3ELoWg5XznWCH8iTmKZAQzHcR5L0GaKE04CmpSvbEDnCeDubdxdPO0DLRYLZZIgCbVHZg5ZDHrmxeptdTqtJk35u0KOkzut7TNixUBnjG6D5GxsqQudemm6lCxjVULqMj3cjMsAf6x9BPgb+Yd9pDxuIJcT106FC6+eabCaGvAPjwdM7sY9LGQR5mvCN8z/PIK4/730VSSJDEYgoaJwYhVZSFYoYCCaHtsMjCmKE5U5kCFGVz3+xAa0+WPPR+zw2mKMgL1BV8htLOcx7XELBr3+iG0q5crKRDzWyK7y2CNd+L/uE0O7AwJNQe8A+iVpkNKPV0Qb6Bg40ciImUZA91Yz4u9itZGid71IP0nTqXvqO5wXbhJ7mxtxY199cnmM22UOpTZaVcMD8eT4YNG0bz58/nqGPWf0vmi2QVAggaJCN9LzABl0JPM3HEzjDCBBVWWZBNCXFNgQRhvmtMN6E5e4kB2WW+oj4Y7HlKXYJoQwsDAp8T8pwME+JVLQuz/p9979OUwDx6JP0t2u5xjqAAJ9+Nv7iKqn6YJUOE/A2aKceLZtD+7/ViGy0NcQ7jgjRlL830ZzErpIEhX6A0pss8zeka5UI6RymL5LiAd955h2+ylSpViuP7mn8U8xVt1rhpxj403/gGsJ0DL00P/EEjz+hahzrIeH22Qh1ffigX98wXgTLXqUxlSgOYSZzvyZr5FlGyp5f6R2AptfRmiS6e8/bgsxdNF3zZjBmik9ghNZt9a/vJrfMtLALIPHUJ/Zr2F63fv4l27d9NB3fup/SMdErqXJgyCptllVrcTt5elIb1fJ8vhWGKDXk3xBmPZ75LW2iXtqjrORjyRHU2M2qZzcuCUV2b0oYeUbtRWaWEa/28KrBv3z4aM2YMwXE6YIm6zrRhi/QyTJw11fc2i0Ocwj8+d2W+juSwIDWQPXFaWJ3IwjlKgbhnvoi9ZtzYqqlUCobYLpJNscNkNut7wtudE/9Gz6WEDbj16jbdzcBSsbCDTPnoDibTrKKrEnMXH6/+igYW/II2VzpjjYcVf3DVDwV+vOTOjBeDOs4kmm0yeuE06gAmtiR1HQ3MGEedPZfQC947uYgi6h1F2OCrr75Kjz76KN+5h7n73Zn9uCGEtlk47v+cXuazeWjpdMp8hvZlQ/ZdRM3epEKLizzPWwpE7ExdKGhDLcUOouEMGcrgVo6bFyjMGstg5NM0UDvoIDpZYZmGfDs8tel/qsuCDtSR/hRz8/eA501tEfqdhR4qrNrPQNYsWEknSpsd1UeDHm5tON0X6J/OmDGDppZZQHtfSSW2UIgL4A7r2WwYM+Kr1Tb0aqAXNVCzDF4ioYcYvFsbKGf1DCIdwTHhQOeVV17hz967nvH0r8cc3frpjO7sI9WADmceoZu9L9JixSwyQ3tukOpPCT7jVmXdxoLnIxacqTs9p2JcbmNBObv7EmobeYFHxM7UheWak54eCODkcBv5bs6QkW9VZkWm2el0C18DKlQga2ZQOsCWqfbfBXRtCZi5bEjZQS3PaE30os70fsY3Jj8RmPHZQcMydejtt9/mDteNZSKlB9pzasN4X+bOnUvjx48nhLOBh62Wt15MYy7Ci58N4hgHkwfXM5T59INnAd1y7FJ6r+QzfAkfDj3sUHZqA3WsnkGkv/766zRgwABCeKmThTLorfQvkayDJkpt6pvUi7xJHrrL04/5gA5tQ1PXyJmL4mzEbrg65eP5iAVn6sbn1GqsSHMaC/Lt7gvyBDi1kRd4xL2qGZakRjjvjKYD0rOraoa6WgfqCKL5pves3iby3aD7JTfRt99+S4hamxcAGeSbb75JDRs2pOHDh9NVV11F69ato08++YQ2XnKUKcnFJ+MVtAwoKo0v8gtVOnI13bniecfNT1EnJ47vvvsuNWnShBBWCjDA/7kpzhqen1HMiAIbbH3oA5MGTbh4FVOzp8UTbj+yfM5RIK5lvqfYdtcadbOJOs08dYJpbH4QPA/3ZKPBYxkcy1yiNqNfldCYaV0m8MXM96mnnuIzznD7z255LH8//PBD+v333+mee+6hz+eOpw0ld9GfzC3m+8xh9xbm6nKbuse2eWwEXeo5ny5SmtDhI0foBNNagDtNyLzXsDhiTpuMto3mYEZmikrfNP2Lpmy6kG5c2IKGXfYaCW2DHOyWN71q1Sr+YVuxIiuKyi7az6NRGPuFyiJU+T6hSTSUJhizw74uGcjSIQ67oqwQMxSIa+aLmSnEA1qAjqjW2QgYSXbByh/voMBDdKH3ftar+yZUI08tKnNFcZo1axb169ePXnrppeyiElK9OXPmEBT8Dx89TG2fv4au/qghjVYW0LPqd2FJFxD+aFrgd5rDPCTf7GlHD3u6csa7nTHsrUxz4dfAElrOaG/c6AwJyRwslFHJQ+MrLaapizpQlz/Op363vEBVq1bNwR6JevfuzV1GYtkL+MQzxTQDh5Xly957CHrOT9B7UcGnpCqZb1QImYeNxDXzXaqaY681ZXI1LUSi7rWD7UMboZFak2tBvO0fZ8zSXZ+r1OAqRUjE0r9Vq1Z00UUXcXmrrmAULubNm0dvvfUWnSoToEpvNaUlVVfSHHViVsuhuQmwxAJM+NOUmfRpxkzL/FhNPNHcR+POX0bTJ3ehm0a2plcefJFKly4ddXRfe+01Qhy/a665hreNldhIZZqpn97erlSO+ZUe5B/LFCNPmfKzk1BKznyzQ7aYqpOAzPesyAGUjmTma+eP4HU2850ZmG/afNPe2Vs9V2ovuRjgtttuo0WLFvGNDl1mNi+gT9q/f3/aWmQvJQ+vTr+WWcHm40w3NgKGm01UdNWgl/scUweDb+B//GtoOf3H4kof1ZXJ6QuVyYMP3pBEY65dSt990pHuOXo1vfzUS44OXMLBCaHgsaL57bffgtWghSGs+UQiTIAf89zCWG46txwU6ZEey6jFI21C1s9jCsT1htvSwAYT+RortXRpWy1C/+gKOFzsZ9smVgCz4Um+QbbWc2WpBD3ovVFX9fzzz6cnn3yS7r33Xl16di5Onz5N//vf/6jLG3fQf4O89Of7x2hOmWWM8bqLQrLTX7h1rvFcyLXXcC860yXUm7rS7Z6ruG4ujCQi+SCGi8vppEza/3AKffjYn1R9UGsa8dnIcJswlU9LS+PiBmxcamFswLxC6OBpRQMDY6h0egeaFJirLR7ReRm/ZL4RETAGKsf1zHe56s58vwr8lG0yH1Dto8iWUYrz2Yyxccibv6E3GPstYsyi++67j5YvX85VkqCalB1AWJrnJ/engm/UovVVk1kTZtFLdtqNZp1+/k/NzeXxd+FYodN07KXC9PTeMTSs35f04TX96cJmbcx4hpBy9913c9Wy+vXrB0vDL8PswKLgtTj5npkO54RsXM58BYXj9+iD02d8ye0AystiM8GqDJyoAGDPbwdubaCeGx5H2K67tgzCqBwspV/KpqgFKGWHQmnsT8D4Eoz5ZvMTg828/3ZsooIqmFwWiLF8mfIzpafqPZqVYzrFsw4MphKBIsxfwVkcRF0cn3vuOW77//777zsGVtSOFfV27NhBL7/zKq285zhtH1eMvdD22gooL8GaAkfKpNOyPul0Edv6KnQwiWolV6FKgdLUMLMG3XT0YqrkdfYj8cwzz/CwQJDfa9+brwv+QoEi5i9Mdhhv/Yyq3PBltW+L5SAKwanOYT+lBayfMVQSz6llAywR7y0Mo3bt2kV++KS2ALc2UMX4nBqbcWsjt/hHLOLhK1KkCFWqVMlIs+A1Ql87KScLyxAnIwu3NtAZHmQnPOCeT4vr8sA20w5+A6U6Va5UOYg7VMVWZmwKXmfnpGjFEsGNM9QXYxmX8bNJtto9qQPVLV2Td+NEj7Fjx1KHDh2oUaNGthtwWnp89tln9PonA+nktOq0s4i9UYcYH8yra6iVaBb9LZLk0YICJwpn0DImj8ZvZoG/6NNCM2hx8udURSlvUZrojTfe4EwLm5tGWJvJGKGZ9xqLhXQ9wPMQvZc0gVYHrJnvOZ6yunfBqlHxnFrlIQ3vLQwLypcvz39W5dzaQB3tc5qdNnKLf7iNJS/wiFuZr5XIoSHV0N1/RA4IB2B3b4TjqpnZ/RhYQFaaFnd6rjZWt7zGzvtXX33FxRBCP9Sq4KlTpwhL3J9++okazrqWMd6DVsVMaYioLBmviSyuCfuY68uPA5MtyyEyBfSmobdtBdHyTXyd5yK6Qm3BdhWSrLrhafD6JiH+KWDmNnEyppWqeUZ7roH5fssiA4QKcNGHGaMRsEtthL7+EcYkbpAAf7ShQtOmTbkGxE033URbt241VVu4cCGdd0FzKtipPHX5ohfNSlpoKiMTok+B3elnHAxpmp4wYQIhMsXEiWfU9zR54hSRU5wATurLK6WcivDI0O97n+ZlYBFnB+eQs2jErp5Mjy0K2N/h2MLThM1KdaMprQFVC6bBLSFcPoYKzT31mf8zs0EGgkZqYbIyz7Ldp1m8t3Dh8ssv55tvnTp14rI3Uf/jjz+mZ/s+TzS7AX3U8Re6OfMFpnGrx0OUlcfoUmB0YBp998/0YKNTpkzhBjLfffcdFS5cOJhuPLnX04k9PQWMyVRRKU3f+gZyJ/VPMudMTjDc9yxVPSPycLIidGP0Tn3IvNihQDa3ovJ2ANjEsDIrbkDVg4h9r/4e1i5za6UhM0xYHKwvTrRMD7PgF70fi6zgEXqt2YmBhgZuuOEGLn+79tpradq0adxYAnK0+394np4q/GGwj5w6wYy/jlKFz/rhJ8PoNjOn+o3VdlW22n9w2gt0fOUBHgbohRdeoOnTp1OFChUcUa6vVKNfkj6gp9Lfo3+V9VSBzXJv9XQgfJSFQ/+bPO2pj3+YZTuXe1rw8iLTSdNGMl9Bpfg+xiXzhZkrrK+0ACZSiW2NCYCKTziA6A0LFGafr+prnVLZjFPJSnvdP5o20059AXb1qvc+Ghf4kdYyvwfX0oXUlEUtCwe6du3Kd5yhuoRQ419//TW9dkCvQxpKe5i5X+RpwhalJags07wAPVZ5NpmiJEC2jeCg+zIO0XbfXo734sCaULqI2TIYEzzQ4UMCmShoAKsyxOFbzHxawCLRTm/bOKi+j79Ig9sNoJ07d3JXkdWqVTMWsbzGB3yW/z3bDeqKDC/gaaWP3dVzha5NJ1yrkfOHQNeQvIhZCsQl84VzFyPUparBJMxWQ40/JirhxbVaNoqZ7zKmU/yW/wtRPHi8isXh+oIp109g1k2AfvQpTaT+dCO1D5ZxO9m+fTsh7lf37t1p9uzZ3Ava9eUvpCGpE8OyDIN7SzjAgWJ/N7qc+WFg0SgUvToecMHL/47/y6zY1VHaoXcbY07kI2LJBUojusVzOV17ug3VKHRW0wX9YRb/jD8rHFKo/bdVmpLn24NUsGBBuuyyywhhgaAWGA0owDbRGlFNWmrQzS7GzE66aZgvVnY7WdBNO6ipnMOyrNXD7OrI9NijQMTO1IUTdXG0GmI0nCFDTw8/qIwsZ8s6o4P0Wv5KdCrjFNdd/IE5kznpZTPWEAEbGMVOFqIkrzc4yxVVD50+QsfUY3SPtx9lKJkimR+xI90ksxYN8pxlynhx+gc+o44nWgfL7qYD3KpLyJS19Fi9ejVnunDC3blzZ76jjsi3L7/8Ms296QPq5/2MJim/mhwIBRs3nKxiG5FPstlXHxqWVSeB39GPA33otkAHTgHQ9AT7AxxRjtMAZQwN90xmgqIMnub0DxaLbdSGdF36hXRoyHqa9Pt3NHXqVC7j7du3L3Xr1o1Gjx7NmxDPoF172ntrVeZ+tRM9lKTXmOjrv5s8J9Qg/mmn91C6zxpv4FrqZCpbteyLyJk63tdYcKYu+IY4WtHMjaaoE+l9Ef2LY27gEbEz9VD04zAQJ11h5Ls5Q0a+KLPFv9v04a/nrUYFvezRTE6mnzKZZkAYMzpEKgZ+qZmFTPUCbA9lpPo9LWI+CozQy3M9jaRpxmQq7EmhQgUL8dDoXVnk2jmBxWwrJokx0ge4DBAV0B9cP2K2+8EHH9AVV2QtO6+88kou+wUD7n26N0249w0e1XYU2wgaGZjC3EGGFg/N6O3NhGQCJDzueY86FGgT1Mv1FUqiD/3fEizsnJbtGDp0wrt42hHchMLVIz6k9z16Hxf//Pjjj0HqQKcXTtLhl2PSpEnBZzBYwOLE6Vm/J/169kHIpBHKVDZvV+gR7010f/INulaOKFkfEV3imYtaLJxVaqFUOpx02PWdcsID720sOFPPLf4B8rnRA2Wc9PPd2kC+4FE4twOBR1xqO0CP1Qi1CEuxLPhBnS9OQzqKaBVWYod/2SYUwqgbAS8vZrRWL/k9dB3XTrg64wnOeFEXUY6xBF6tbuZNQZUMjBczKsF4eQb7B9kvdtfhvOXZZ59lmzel6SVvT9qY9B33KXGJ0kwUzddHeAgbG/iBb6xOUGZTvYyu9IR/iOU9EYRqwcRL3/veoZVJXxEcJLVhYou9aXu40Uu5cuW4SpkoK47PP/88XXzxxXTdddeJpIiOD1IXWpH0JS1PGkfw82uE/WRv1l6HMV8JiUGBOGW+203Ur0EVeRo2vUKdHYpGWnnO5acFFTbNNcAQ/9cmN4DYNEEgRys94mZUh7rTFdQ7czAtUlcbWiOC7HjZsmV8JgXLNZipWgHUmsCAvUwUApeF0IAQ/c5N+oh+9L9LkgkzbTx1IbXI6Ek9vf1pk7rDipQ8DZuPn9JL9FfSKILjHwH4wF166aXcmAVM1g6eeOIJat++PS9nVyZa6U6hqaBVISExKBCXzNeKuVY/w3x/YmHLwwEos2PZCbCa+VrtTN/h6chmXDMtu+lPD9BU+o1GMBGBERBCpvyWVLrjjjt4KJ8LLrjAWMR0DZNWlAeDADMWcJHahMCEZ/uG8U0nkZ7fjhDpQJvBDgpRQerr7UUraBzdSlfypb4oC3+8oC90eaFx4gZgwM2bN+crFreykeQ7Oeqvz1ZcEhKDAnHHfBENQGggiFsAF4UlmTYl4Ed1gUgOHkVeMEFzAvGB2AizYr6aovy0tlqZvcDEtQqMeQi9AxPnB+ktYxa/fiCjM/W+4QEaNGiQrU8Hq4rY8EHE4REjRhAYgBbae5rTH0kjaKZvCGFJHWvgZKklcK3MYtVf4WnJP4KQg0YDsEq4y3MNrU2aQK8w5gsmLAChfyDqOXbsGPfHq/VOJsrYHR966CGqVasWPfjgg3ZFIk53crkpZ74RkzdmGog75pvGtrGMIByhYGd7buAfYzZ19LQxpYmElky/VwB2kp0giblHuydwLX0emGFZrL/3AbqPBlrKHBHZYnXXWdynLwJZhgs1atTgMmAo+8MhDxx5awEqb38njaYZvnd5/DVtXm6ew6AAsd+e8Hbnll076XtGk858Qwt44F7B2OBt72P0K5u5/5s0lu4NXE+71QN8BpsdL2DG8eF+o91Pff+jc5SyumwEu4Rhy+OPP84jjOgyQ7wQ7kChCZETUFG1jrqBD1M95axKZU70LdvMPQr4cq+r6PS0g5kNG4E7GmHGEX8w/1RGeRmU7Fsx5fdxdHYHW1u/BTMrFuA2833O24NrN1gxCMgRIc/9gcwzb2g61H5dodZtL6MePXo4qggJXOyOffr04ZtDCMqJ2TAiWZQsWTJYHIwHv7/TV9IImkJf088shoT97nmwYhROwBygNQBDlJ2BfYziC9i1j2l6JHPtAsxpyzBn6tgom6v+Q59lTs+KEI0pALt/kQJm/gO9DxFWA0ZYsGABd0CPsD9wZoRd6Ujgo48+IpiFw+FOr169ImnKVLciMw2xApgea2fwVmVkWvxQwAd/mkLdwwpt6L255VvV06ahPtzXOYEbHtBJhN/RXZnmuGqlA8W4fu9MD9NyMMzlL6PmpPjt3+zGmTWZ6k+W85wko/KwBuG2zG7tsP8YbSDzZh+K3Rq4ku4LDNTUOHvabnYtKrs7mZ54/wlOy0jpIbQh4JoSseEefvhhwnJYCw0zq7NQjY/TIN/DjAXPYw7e5zA2vDAkvVdtO+Gc46O0jw5ZM1JxC8QxnIZdyran8+nx9FuoQzJb4TBVbHE/UW3//v3cN8OSJUsIM1XIzu2etXDvCzRV2rVrR7CAgzYEIBrvS1I6E9b4zJZw9dSqwXfRbgwciRDxQBvQj7V7v8Olh+hbe4wGPRIVDwOr0pItNs+t1HBEtOLvPX+YkL6SWjKWyownLABiBFgcCbArB5nxfdSJmS18I4rqjldRa/qA5Rln3SjUaG8VOv3W5qhZSWk7RkiiP//8kzZt2kStW7fmeqjafJxDfngbsRA2TBySxrYCv2Y2eHczI+gqTM4azwDthT50O4sP9wXNJKb5ETCr30FHF0wRH6uff/6Z2rZtG9Uhw780vJ3hw7d3r3lFFklnWDEYoT5VMybJ6zimgA8RKJwUi/HlcsoXY3cqE0obbnhAIRxqV4e8x0wGFuW8pWg1bWEusfX6v9jsuS75YhYG/TeT43Xgjc221KTCfAjwFTE44yvLWdsw39P0sv8TCqjWlhupnkL0A/Pxa4Ti/lQ6dssymjruBx0No0EP0UaZMmXovffeIwTTHDhwIA0fPpwgkoCxBkB7X0qz5f8tzOwYP8C6E5tpccF1tEBdQf8G1nOxyaFcDnTJEQnhH+5lM6UuF6nA521zpT4TcpzdnBP0QFNDhw7l5trwkwG6gAZidqelh7FbbRvGPHFtfE5btmzJrRHBgKE1EUobaMsND2jGGKGJrzYle7L2JYx4GMuGggfagPjFDpdQ27CrD5xCaQPlIm0jGvTIbTzMn1dgEMNgJb+EbfyX9JMJa2z8lGEyX+1Lqi3URKkdvHwwc5ClRy/ID38PLKUNqrW4ARs6U8HcLaDqAD/1fXoAX5ZaZEc16dxzzyWIIf7++2/CphIYMRgCGJAdwKy6jqca00tmjPrMuw5XnP8x0cqfgeU8QvOfgWWUqeSujTLkmpBvNlRqUiP2gxFMtV2lqW7FWnZD4ZoL8MGAmSisA+fPn0+lSjn7z7VtLMyM22+/nf755x8u3kCQ1JyCRor9+HOqT9luzlEg7pjvSXgZM4BP8Voy31u8l/OSdswXLzbg88B05hznB35u/LdC/c/S1aQoBw9rVlBqf2G6OKkp31m3ys+pNMzEECUDIeoxC8bOPDaEEBGjRIkSrt1i8xJL+ou9zVj49x60fsd/tKH8HvqVbZDND6zghiPYMMsuQAUMVlrYBIUbxSpKOVJPBahYwSJMQFKAeyIrztyKGyHNwqoRZWCwAoY7Y8YM6tmzJx83Qk7lNgwePJigt40o1R07doyo+wMK8yfCVmJGqMUd6hhT5XW8UiDumK/Viz8z8CftYgpeWsCue1ePYL7anLPnEDusU7fSI5l6RydnSxBBrzg7sL/UcZr83AZ6nkW1hXlwbkPjxo15pIyDBw9y5gSZMH6YCSN+XKiAYI1cg4LYZhabHcNnBKwIVzBn9nDisykjjfb5DtM+9TBT9EOun7FXD5OSF6ZiSiqVZMFEq1B5quk7h2ozpovVhlGP9YR6ggophUJFiWuLwO0mIjlj0whMF/4XhM18yA1FuSBm3nfeeWfEzHcJrbPEDM+0hMShQNwxX6tZ7HTGfI3Q2XMxiY04Y564rqFUom6ZL1nOMkSZSI5w7wjn2WN9r0TSTER14a8ADsHxgyktGNajjz5KcN4OfWMhGw61E8giobOMH+DEacY4ffaMMyhrPSOrDLUfYznEs0M4n8mTJ3OHRF26dCHMNvGRAcDbXV4DZr3w1wHRA3DLLvyjrLWsarUJZ1lQJsYFBeJO28HKEMLKBPgR783BG2Cl3YRZxEeBbwnRG3ISJjI/v1ZaEDnZp13bWA6PGTOGli9fThBPQEe1Tp06XCQBUQXCiMcSYLMMs0k4tMFHAnLc++67j9auXctnuoLxxhLOsED8f3vfASdFkf3/emaW3YUlSl6SgIAESaKABBFEQQUDiod6emc4PQOmv6h3et7vPLNn9lT0znAmTKdyJhRBlCRIDpJzzhvYNNP/+tbSs527d2Z2dnb3vf3MdnfF19/qeVNd9QLU2qZPnx4zW8uU9Za60MzBGwVT9UGgys18ERPLixBRAE6xNbIzioDAfi78gVakwo7wZgbfA0NSyBNZenq69FE7ZswY+aoOazk4cX/66acJvlOxdgn9YczkkrVpBVNfCC2sVcMgAucw44UzG6xbQ6sjOzu7wsYpkQ3DfPymm26Sm5+xtLucNliqsXGFBZIqnxC3M3XttRIqJU6UCGfIUAbHp09R2+jOvFN/d5dcQfnFZa+hBQGxQWSaNNj5u8WShp2gdurHb/rSwrV0cqRztHgi8PBqozzjctpppxE+cOB+5MgRKTQgBOHIB7NPbGB17tyZOnToIDU3WrduLWOaNW3alCDI3Ujjo7CwkPbt20d79uyRHtq2bt0q9ZPXrVtHq1evpszMTOrZsyfBAg1GI3BgoyfUc1taSCQe+n7N536cdnfv3l16q8M69MSJEw1NaHg4fV9gIr8+ZFSZRANYJ9ffvx8+DB2bLsBHKjhT98IDbHuNLcokAg+04zQuyEs0H3E7U9cs19z09MC412aIlxNi5OMzOvM0yixKtzjXQR8gOMceW2to6cWx/0XCMk7sA3nSpOAV9Ej4Tc9y5S2wF46vg8Z10XjxAA9ubcQ6LmgTM2J8QHBlmZWVJV/1IShh0AG1qh07dtDu3cKj8YEDBB1LkKY3iiO+2HiQcQRh7Bo3bkxYg8YMtk2bNtI6DIYibdu2lX3Igg7/vJ4PVKsIPMzs+OUDqn4QwtgMbN68ebQZr3HZJbQ6SoqtD2s9pY7h/vzyEe3YdAI+UsGZuhceGttuY4syicAD7VS0HEMf2r1UuWUHqCFdH7yQngoLgwgTQaf3peAkU6oQIDbOeMyF4JimcwU5LbFzuG7uP5Wv69evL9eIsU5sJszGtIcJeZiBQAMBX2x8sbSZjdtDrZ/Rmduvqte4X/jhwJIJIpX4pR3CQNuO7NTv7MpxWtVBwPQyXjUYfyh4A40UQSL11ELoNnwmXDm2FnqjZtrlEowQZRHl9p7glXSzi8qZuU2nazv3lYdFDLiaQpiBQPBoM5qact929wn9aoSKWrJkiV22bZqT3ngDobbHVL0QqJLCFxoPXwrXif8NPUb3BX9Pk0P3CmfZ71AfKltX1Q/TXhED2I2eDd5BN5Q8FrfKGXajbxHGu2YqOOa4x5zO19Ufgbvvvlv6b/Z7p/tU4ZjIhrzUJm2qcFKKI1AlhS8whaAbK3R5/y94HSGQpVlxX4/7AdU5JtaNwXEEdTAYDDiRW9v6OtAthjN1M/mJoGuuw9fVAwFEpIYKH8y+/ZCdZRvqNVYa+KnOZaoQAlVW+JYH4yNC09aOYChQV3hI/TDirpM5Le05aZll14Y+bZIwx4UDGDO5hYUxl+Xr6ocAjC6gxueHch18L8MvNVP1QsAqKarX/UmD1/3C9NVMMLIYExhMj4bfMmdZrvHKB4czbjRc+CmAAxg7C7yKUF9z44XzUgsBWBNu2bJFOnH34sxp5ot9CabqhUC1F77/DH8sdB2s62gDAz2kxoQfwTg18mOpk3CXsf9r8FqZa2eFZGeB59IUZ1VDBOBh7sUXX/S8M6e3pKbk7RTJs3EukFIIhHJycqQupxNXUB3CDrYTQa0IpOl62pXzagN1vPiA8r9bGTs+Dgfy6L6GL1kMLNCfXaw3pNvRS0Ufuxp2DCnuSe32HidU2rbTEaHTa35DPCr8Emw/XKY4nwg8vNqww8N8b15toLwb5sj3aoP5AEpEQ4cOlWGM1qxZQw0aCDenx3SjS3PL/ufVFUtkGWXX2llwX4S2CydGGiViXKCHjfVoRIixI6+xRZ1E8IF2nPBAXnXlIwRv/G5mm2Y9ToChJ796nHpdUH197RzK/G58wMrKjVc7Pp4NvyBC/9iv92r9+jmuCW51LfZI7Zsou06p6WvDok2WsukZ6ZSdVWYa64UpGvDCw6sNOzzMjHm1wXyYEYtvXGBQMnXqVOl4x0nvOSssnPvbyMKTmnShbJ0aZSKeD6gDwgBEbwSiv2N+PvRolDpvileO6TGttssOB+gIvRj+0IheBVzB3eIApUe0Zbs1X152iMJTo09g7QbHRm5k9/wgrbmSHMfwbrxxXmIRqLbCd3L407j1dr2gxvruI8EbDcUC4otiptKFGXMqX9c0BGBaDU9sbh7PsoT2jZkaiw1feDVjql4IVFvh6xSZwmn44Oj74sBwp2zb9CsDo+kkU2gXu5kLz3xt4auRiZdeeqn0S+x08/WFE3ozIVQVU/VDoFoKXyw5IPxPeQiC9+/B6231dO3agRnxo6GbLFl22hN2AtlSkRNqBAKjR4+mWbNmSf8XdjcMBzpm0oQvfIRMi8yXkUTMZfi66iFQLYXvbvVAuUfiTOUUGebmnEIRLscH/SM0UQbnNBctttkt4QgEZpRq9jUcw8Ndpx3ZxigUSw7PhqdQqyLhVL7kFupSPJ5uqPekMFovtmuC06oIAtVS+GKmkC5WyfwS1tP6B7rL4tcfHetZ7bLAWXRl4BzbcohjZiZerzMjUrOv4a4TYebtaBvtsSQjRuHE8D9E2NKiaN7n6bPpHzae/aIF+CTlEYjbmbrmfFg72t1xIpwQQ9cPH6hq2JHWP45BUeD6wAX0TGCKoWi6mkZDqTd9oxjt7LuobSmSXyIMO0voxPw21Ld+F1qorDbU1S6arsqgZ0+4jfKL7PnIE8EgzXI/EFYM5ROBh1cbejw03s1HrzZQ3g1z5Hu1wXwApTICHgMGDJAO4+2e5S1BEcrJtGerF7plLRF9WTKbbikcp0+KnvsZl1Rwpl6Tn4+4nan70SfFE+GlH+flDBn5bmXMfPyDbqXOkXb0UeR7KlKLaUigF11ZOIq+Sp9P34SNwrd3sDPVTq8tH1z0cUPahXRNyUPRB1k7abYti/6+4jJq1NPFzr7I9M0RlTODGdH2tbbixQPtuLVhxkPr13x0awNl3TDX2nJrg/nQUCo9angMGjRIxqQbPty4yburWCyZ+VSPyRMRWrTn1thL6ZXXuKSCM3UNDye9Z+2+3O4FZaric1pt9VegBnZD4EL50QYwX8xt19IW7TJ67KS0ETkFNDuyjAKhEqn1cBM9YXjNQ2Hl4wM0asJZ0Xp2J3brcLzsYIdUzU7Dui9i55mFr5MzdTu07Dbn7MpxWmoiUG2FrxPcG9WdlizMVbGJgVDvMKH/Xcm5YnXNunartk+XpqGWBnQJvOarA4NPHRFAYFA7T2c71X2OdcwZrYhV0MyYVKXrarnh5jYAO2y8kz0bmVIqeI9V/HdkqohtXBp7TN9W7rA023R9GTvhCw9qTIyAHgGY9GI9/eDBMkf/OeL96ygV6ou5nndUWrnmc2ZqI1DzhK9NjCy/qml5dYporrLCdUQRKt5MtZQa94JhhoCvbRBAxOiffvopmuP3OdQqdFWO1075WAURqHHC1ylMi9+x+zzwo2vRQ8Ko2Uz1RZwNJkbAjAC0HubNmxdN3mfj+jSaaXOCYABMVReBGiV8c5Wj0rl6PMP1hTLHtfohyrHkc+RZCyScIBDo168f/fzzz1Es3MJdRQsdO4HaJDaKmaouAiH4W9XUPexuA3p4Xvl29fRpqO8VzdaLD+gkwu+oEy+avqC+X/P57qL9Qu/LnFq+63W0jTYUbSOnzY6DESF8TT9pWeEMKgqXKcgnAo9UGRfmw/j8lAePdu3a0fr166PP9EFhFu+XOoVbU7ioxMaesrQFP3zgO4d1Z6fvFD+nxtFINB4mMWHsrLpd5Sr2hhHlvc8Z9ItjlQOK9QvUUESKY2IE7BBo0aIFbdu2TWbZbdba1UFa1+J2TlmcXkUQCMGDvJuCM35B3fK1+3Qr46cNLz6gEB4MBj15ceOjMGxVH9P4L8/xh8AS+n1ojG2VXZhdm6hVWjOqpdSKpiYCDz9toEM3PPy04TUuftpgPqJDHz3RxqVHjx60du1aat++PdWJiNcyn49o93D7hIwtjBM0XqLMHTvxM7b8fBhRKw8eNWrmmyfMJspLdtGIv1cXOjazXUSMM1O2cMHDxAjYIdClSxf69ddfZVZH4dbUL3Utaeu3KJdLUQRqlPCFFVt56fLAKFJMs5Et6i5ar5bF09LaxArcPuH2T09wJ9lCaaxP4nNGIIpAx44dad26dfK6t9KJ+iido3lOJ3imupWwmpkTPlUlvUYJ3/IosGsDeIEylDKWmaSvyPxJXaIViR5hIWc2zmiiNOAoBFGE+MSMwPHHH08bN26MJk8NPUkTIiNlaCqEqLIjOP7PUuPcObZrmNOSikCNEr4FSpnGgR+UQ8I/2gk7mlGz9aVOd/R1flFLXxX1ab+qW/SX8ryD0ItgYgScEGjTpg1t3VoWoBVvSZMjd9PstMn0VugBW+f+fZUuTs1xehVCoEYJXzunN25j1U/pSoe3HaC2+63LBgsjVpeTq9VNlua6KLw2ZwGFE6IIwFuXnWtJFDhOxG47VekWLaudNFLqaad8rMII1CzhK1xLlofOCPSl3bt3U6fcsrDvWv1F6hrLEsMqFr4aPHwsBwLQgYcOux3toTLfD1r+p5EfLM+elsfHqoNA3M7UNQVtqKU4kZdjZ9TzctqNfLcyvvgoERtu8LTukwYWdafNO5dRm3AzaqBm0SGlzHQ4T7hAWXJ0DXVWy6yMFgfXWBxhty9qSflwsK6jRODh1YYvPI4e1XFlf+qGOWowH0bcYsGjYcOGcumhadNSL2VaGweVHFoXLNUB1veyTd1DPypLaWy+czh5rQ19Pf05no9UcKZek5/TuJ2pa5ZrTrqC2oDH6wwZ+ohuDpP98BE86t/BDdZ7h2b2pZfy5xG+FH2DJ9J3kTJTUNzXivRN1DtQuv4GhzqLi9Zqtxs9npLRjWor1jXjePFAB25tzJ07l7766iuC3uHgwYPp3HPPjfKkP3FrA+XcMNfacWsD4wIjgm+//VYrLo+XX365gX+3NlAhEXygnYp+TtGH273YPaeNGjWSVmb6ejifGRGbug5zmk+zfqLf1D4H3TmSvj1zIfCRCs7U7fAw84prt3tBflV8PmrUsoOq+AwRIAazt1D5qSNskXNycqhu3bq2KkD6Nd5f1NWWgIYtxeZJG6U5no2k0mOPPUbnn38+4UvdoUMHuuOOO+jOO+9MKg/6zlavXk333Xcf7dy5M/pxes3W16sp53i+8JyZaa663JwUvf4ifW653E9GK/JJyiDgfyqYMiwnh5EBxwJq4vUtMzOTOts4MVmnlr0SIgqGmQYoPcxJFX69Z88emjRpEv3yyy/UrVs3OdM7++yzadSoUXTttdfSd999F+UBr3xnnXUWnXDCCfT666/TypUrCbvv11xzDS1fvly2cejQoagD+csuu4w+//xzQgDIevXKNn2wLv7ll19GN4569epFAwcOjPaDE/Txl7/8xZCGGfGbb75Jubm5dOmll9JJJ50k+8Xu/5IlS2R7V111lbT+QsWPPvqI5s+fL9u68sor5Wxn06ZN9MUXX8iZI2a1J598Mp1yyimGflL9ArM6u023Oar1mdLuJUeYyn8WmUXjAyO0JD5WMQRq1My3PGNzyrFdZgio9PR0slMZ0xta2Fm9DVROKk+XCSkLL1n9+/eXgldrEAJ1xYoVlJGRIdf5vvnmG/rggw/kOZyrvPDCCzRlyhQZ0mbGjBlSSGI9EJ833nhDCkKcg+655x7av99oQo2oDBCKwApLHZ999pnWteMRM72+ffsS+od/A8Q0g6XX7NmzafTo0fIHD8IUbhchnCdPnkyPPvoo9enTh6ZOnUo33HCDbBs/Eq+99prcsIIQRv9VjXCf2tqnxjsMdubY/KBr+Ti+FflSf8nnVQwBnvk6DFg/5USZg9djrI3ZRQ1Yf2zmi/Xe7yNWk2ME7Uw2HTlyhLCBY0dt27alm266SQq8HTt20PXXXy/X0rBedvrpp0sh16xZM7lGi5krPhB0WMLAzFmjt956SwpMzFThmwAz1YkTJ1Lnzp3lGjOWF7wIa8Cnnnoq/elPf5KzPtT58MMPqUmTJnTBBRfI9tAGhCl83r777rv09ttvy5ktZvINGjSgF198kTAzHzJkiBTG2PQtLPQfCcKLx2Tlw2eJeRlmkdAjzxULC270dWQu7VEPUlPFfrzd6nJe5SPAM1+bMcBar1nYZitNKIPKnOOg2kHhu/eAcAM4M/KLDMCpb6oJNaDKUIZv2bIlLVy4kPTaJ9BYgADVh6zR84qlhAsvvFDOfvX19GX055hBo81x48bRrFmz5HIGfBRA+GJt1w9BaGZnl6nwgW+NP8yENUJ6QUEBHThwgBB6B1S/fn15xIx4w4YN1Lq1f58IsmKK/cPsHxujevohslh/aXuO2fH7EeNGpm1BTkxJBGqU8FV9xuTuLiIEIPoxCLuxEEiwpz9eaWkZxA3Cx8MX6mxL+lmB/rKOJaOCEzBbxWssXtHxpcbnoYcekvrKTjNivLa/88479MwzzxBmx1508cUX0x//+EcaNmwYrVmzRs6OIfCxbPC3v/3Nq7rMx3o0lj8gQDHrwwwbM2kQZsWYwWJpYubMmdSpUyfq2bOnXNtFPgQ+NFCwoYiyvXv3RnKVJTxf2q6/dhPT1QXaafSIH3QzvR2pesss5nuoqdc1Svj6HeQTlXbRoljv1V5l29poLmwR/hw+jsyIltdOnOzytfyKOmIJAWufn3zyiZwRYraINVi8tjvR+PHjacKECXLddenSpXLzbNGiRU7FacSIEVKLAq4QEQIdAhhaFRqZZ3Fauv6ITbGxY8fKehCs+MHAphsIs+KuXbsSnM5gkw+bdffee68U7FgnPuecc+Ra9M033ywFMdppJxyT33333XK9GuvGVYnwfOE50wh+fX+IWPF/InSLViR6nKeuIP3GbzSDT1IegRBmF9u3Wz10aZzj9RJfaCfCzArk9oXzagP1vfjAWqZbGT985KYLI4myTXp0a0tNc+rT9vxSTDArw648MGqUJWKxZRqrvJ73GW1N321IDKlB6rm7HW2P2OOaCDzc2sCMEAIY67oYF7y6g7RxxhIDCJoRGNurr76azjvvPCkA8EqP13wIA5RHeHOoQml1oT+sJ/ABfDCDxQdLESCtPMYFM9r3338/mqbVhwrcddddJ9d8sda8d+9eKXghTG+55RbJO9Z20RbuAUIVmhVYF8ZM8dVXX5XrwEOHDpXLILgXbMShvNa/1pef58MNU60dt2cQZbzasOMDG5jATuN5jrKcchsb13sbRLJo2M4e1LVhO1oZ2qSxI48vHfqAbsu/xJDmhw/MuHft2mVZb9Ya8moD5SoCD61/7Vhd+Qjhi6Vfe9NuWDtCBcZNwVnbpcXMxYm82kA9PHhufEC1yY1XP3xkFfgLZNmzfmfKbli6HgmesCGC44lhMbsLG9fYoG9ppuHKydStRWdzcvQ6EXh4tQE88Grud1ycsPcaFz984Mb98gFhmyV+5Lp37x7FCycaH/r13fvvv18K5caNG0sBjucUyx4ogx8gPfl5PrzuRc+Hvm39uVcbdnxAuGCWr43BogKrtsgZoZOpdXZruip8Lt0Vfl7fJU3NmktPNLzNkOaHD/yA4c1IW0s3NCAuvNpAeW1czHW1a6827PDQ6mpHrzZQriryUaO0HZwjXmnDXHpsqXN+jnXSLVu2yIx2StlGkFYjLKzszTSOzjAn8bVPBK644grHmZi5CW2NWJ+OJYyqRtho1K/Hf6sYLSlxPyMCpbrLvwmMpEnhF8TuRZnB0K/qZlosfI30UjpVtVuv0fzWqDXfZcp6X4MNH7wa4RV337598rKDUrY7r+Wbj7WE994xNMiczNc+EYBBC2a+NYn0whfaMwuU1ZbbP0s5Vaa1UprSYKWXJf+9yDRLGiekNgI1SvjOU1b6Go1XIv+lW8JPEsw7sRaJdTGQn1Ddo2mA2JOu66sfLsQIAAFtHRjn0yLzLR7L4Dy9ve6Hf3zQatX2QWQ6qjNVIQRqjPDdoe6jrWTcGHMap2fDU+i58Ac0qPg62tLukNxQQln4V21GxrVEcxvXiHkvEyPgFwHoL+vXp7+IWDU1oLaop3HKGRYn61B5XKCu0hfj8xRHoMYIXzc7eacxwnrue/WmS60ArUxf1XkjradyAo2gflpRPjICnghs3rw5qluNEFR2wneUMsDQDizaBhQbNyRRgGe/BphS/qLGCN/5qr8lB/OIIe4bduo1Xd+Raunam7kcrh8M/qFSDCvseOG0qoEALPQQxw0End19dMjAeG1hV3lG4GRDGi7OKzQ6LkLah7z0ABiqDMXtTF0zR9WOdnfu5dgZdaBuA5USJ0K+Wxmtf+1obmdOcKnF0bm5jN1145L6pLZvTzA+gFXW+QWD6PGst8kcIv6KyNl0RkEfKoDDdkFOfCAvEXh4taH1rx3Rr5m82kB5N8yR79WG1r92RB0zebWB8tWVDzg8glUhnv2PAmLd1jQdOl3tTZH8EmG+bnTsOzy3DwWzAsLAuEzbBksP844uox5qB1/jkgrO1LXnQjuanw1cV9fnI25n6n709ACgm64w8qEg71YG+W5l3PjA69yiojXoptzUIq0xNRM6p4gw269fP6mE9nXaM3R5yQNSvSeT0unm4CX0MKyWQQAANrVJREFUUK0b5DqcGx/6zt3uFeXc7lVrx60N5kNDqfSYqnggbPzw4cPls/9F8Ryx+2bke2zaUKqdbnXG3zx4HA0J9LY4dPqy1jw6NVjqytTr+UgFZ+qpOi7GUSi7csMUpcrzvTX9zpZ1Up3OEFvNy0OU0/1CcwEzXrgu1Kib8P2wKO1NOlTrWzpSazo9GrzRsgGileUjI+CGAJ4rGJSsEZGvzTEA4U/kPMVZbfEC5XRL059EZljSOCE1EagRwjfW9V4MWX0lSzp1gXNvM9WnLEK4ISZGIBYE8Nqfl5cnvbT9NzLT0gQiFyOUvBOdHxhiyVqqriMsPzClPgI1Q/hGYttsw/D9FFlKLbu3oVWrWI0n9R/nqsXhggULCFE/QB9Gvrcwf0FgqCVNn9BaaWbrthTRjZlSH4GaIXzFLnKs9Ebkf9S9eAI1HJwt131jbYfrMQJmBBD9A97dNqk76WcbbZwLAqebq1iu7cr8z8bFqaUiJ1Q6AtVe+MI93zLVn1mx02jsFAYaqx9RafrP1ldDpzqczgh4ITBnzhwZJslORQw647Bs86LzAtY1YbijRIw3ptRGoNoLX2xiQADHS0fqF9ALdT6JtxmuzwhEEUC8PTi/t4tGMS5wRrSc28lJSkfC8oOe8Lx/Rwv0SXyeggiEYFeuqXvY8Qf9O698u3r6NNQ3e+rX5+Pciw9sTsC3rhMvTnqCv9Bqc1cxXy8ZsIuOhHMpVOTsDM6JD32nicAjVcaF+dCPbKl+t9MzipLa84FI0e2F/vjKog1CTFr3E84PD6aicJGxcd2V/vsySvgTeYX+q8sl+oJm07giZwEOPtAG9Ked+OXn1ACpxCleOab/vlT7me8yim/JQQ9/JEuhV/d9rE/ic0YgJgSmT58uwzC9R1ZvZCdFOlAnauO73VHU31L22yDPfC2gpFhCCJEO3BxdQ1K75Wv341bGTxtefEAhHE7N3foBL+b8FSUbSWcEpLEb8/H9wmn051rXe9Y386GvkAg8/LSBPpkPPfKpgwdizyHO3kXK/1kMKy6lM13HDXek/76cJWa+GUW1qIDKZsq7RWjX1WlbCMsSToQ2YBTg9Iz4ecb0fNj146cN1HPiAXl+2qiKfFT7mS/0HhNJq1psT8gaciJ54raqFgIIGQSfDrnCN85adauBeRhWjIsMM6R5XcDKclDA6kT+m8g8r6qcX4kIVGvhCycl0FRIJIVFDLcZR6yRBhLZB7dVvRFApGbEzHs9/D/LjQ4L9KVsXSQVSwGHhJHHnK3rs6ep8/WXfJ5iCFRr4bssEv96bxubiMWTV7yXYsPI7FQlBD799FM6+8LRtloOVwXOielWRgas3vZmRRYbliJiapgrVRgC1Vr4rlTFem+cNEixvs7NDP8SZ6tcvaYicPjwYVq2bBltPTWfDguPI3rKEqGxLwycrk/yfY61Xfj51RPcof4UsZrF68vweeUhUK2F76+02YJsM8U9EoW5wmCbtbQDnYtp0+ZN5qJ8zQh4IjBlyhS6+OKLaXLYqBqGipcGzqQ6QgDHQlgrPlM5xVJ1prrIksYJqYFAtRa+Zi9RgPyKwKhyId9H6WL5QggXv/Tsl6+Uqx0uzAgAgffee4/6XDmIZqvLLIBcGzzfklaehNPFerGZZkT4Lc2MSapcx+1MXVPQhjqIEyXCGTKUwd0catvxsTpknfnOKxGuIRUnTq3pakGY+gQ60SzF+Pr27qrP6MH8P1sq2PFhLpQIPLzaYD6MqKcCHosWLZIqVZ+3sm6EwQF696PthNP0/Jidh/cjEeLKZP8zX/g1OZB/SMTDqGUABHikgjP1VBgXAFMZfMTtTF2z+HDT08PNxeuEGPqIbo6KzXxA53F70V50bSCzEDVk2lw0zmhE/SJdaVbYKHybjGhL06ZNo7FjxxpqmfkwZOou4sUDTbm1wXzowBanqYDHO++8Q+Ovv4xuC71pZE5c3Zg2zuA03W1sUdnuu9BTCN8WxY0NGj6FQjFyacYGOj3Qx9An8EgFZ+qpMC4ApjL4qLbLDuvVbSIogGp44Mp7caLSjtopLaiX0slStfaAJjR58mRLOicwAnYIHDx4kGBYsW9sQMxtCwxF4Bf68sDZhrRYL4YqvS1VZ6q89GABJQUSqq3wXSeEbzw0RDzEn4QelREq4GHKTJvq76GCggKCT1YmRsALgZdeeomuuu539AJ9aCn6++B5ln0FSyGfCUNFaCEzzVHLorCY8/i68hCotsJ3o7ojLlTvDF5GnZW2sg3MgNMpzdDebvUAXXGr+DK98IIhnS8YATsE/v3vf9NxN3SiHSI+sZ6CImLmzYGL9UlxnQ9UTrLUnx9ZEfdboKVRTogbgeorfMVj7kX1xHzDLFS1OveFX6ZhJX+ktKLTqEPxReIrYoXqxHN6E6LPcpQLDTU+2iHw7LPP0sWXXEzPpH1gyb4wMIyOV1pa0mNNQHxB6Avr6SDlWMyY9fl8XjkIWCVK5fCR8F4RHcCLuirH08nKibbFlqhrCWo6JSI491Z1N0Fh3UyYXd9+++305JNPmrP4mhGIIvD8889T5zv7k53Rzx3BCdFyiTjBTLqvUI8007w4ormY2+LrxCBQpYQv/I/6JQhML+qhdKDBgdIYWl5l7fKx9HDppZfK2e/ixYvtinBaDUfgiSeeoPHjx9MzdaxrvdBAQJDMRNOpge6WJuMJImtpjBMSgkCVEr7lueOt6h7P4r0Dnclujcyz4rECe+mgPLv77rvp4Ycf9luNy9UQBHJycuiVV16hHvcMoV/UXy13fW/gKktaIhLsBPqCiNVheyL64jZiRyCEB2T7dudQ0zBsgE6hE2mzUfjTdCKvNlDPi48jR44QXPE58arno1Appn2NDzmxE01vt68xtSwR5sbO0bmjZe1O9uTuo+252+nkk08mvFq+/fbbNHToUFm0ovHwwlSPhx3vSPNqA2W8xsWrjZrMx9///neacPkEeoBeBZQG6lXckbruzabt4s9MXpiivNu4ZAcaEB1nbHW5cDK1bfs2YV9U+j3FuMAwateuXTJCjLF06VW8fKAVrzZq8vMRqlu3LmVnZ9thL9Py8/Ndlfk1yxA3IwuvNtARhKobH/Xq1aOsrCzHMno+5HpvseMtyYxaQntheNMBwu4njdoVt5ARZN1rWHPTstIpu34pdpj53nzzzdJuHyUrGg8vTPV4WDkvTfFqA6W8xsWrjZrKB5znzJk7h06dfymtimy2DMFDmTdSdh37750Xpl7j0pJaUlZhJuUqR6P94jzcMkRtj3npw7jAsKB58+byEy2oO4mXDzTl1UZNfT6ATbVcdthpUufBjZoJXqAgeEF2RhTm8nbX2NzQCLPfAQMG0HPPPacl8bEGI/DnP/+ZTn79XHo58okFhQHUnUYFBljSE5WA2W1XOt7S3Ap1gyWNEyoPgTLpUXk8JLxnbIR5kd7zfxMSr2kxUG1hMa+nBx98kKBMv3WrMTqBvgyfV38E3njjDcpsXZfe6/Kj7c3eQYnVcLDr5ES1nSV5uRq/f2tLo5wQMwLVUvjuObYR5obKEKVXNLuRUi96Xp6TBlTXUBz2+Pfffz/dc889hnS+qDkIHDhwgLDWe8LfBgpvvWWv/XoEzE5u9HmJOu9qI3xXqpsS1Ty3kwAEqqfwVUu1EJzwwWuZXsWsGZXPx6/WbhulmXYaPUKtCBuUsGhiqnkIQPNl0qRJtKLuFsebP47qO+YlKqMzlVpn6tuL1+pT3xafx49AtRS+B+iIKzIwrmisW2rIVpq6lnfKhIWcHT3++ONS9Wzjxo122ZxWTRHAckNhYSFdffXVwjTdOfR7BxGlraKpLTW3dLGJvA2PLJU4ocIQqJbCd7962BWw4YGTDfmtYhS+ThsYjRs3poceeohuuukmQz98UX0RWLdunVxugFEF6J7glTQ80M9ywxC88GJW0dRKbWLpYoe6l308WFCpvIS4nalrTtS1o92teDn+Rh3oA0ItxYmQjz6cymj943gwKGa+zmrHNKSoJ+WrZX0dhy+DyQm1Ex/69M0lOym/sKwd5Gl8jB49mmbNmkXY9b733nv11WJ2lq1vxAtTjQ/tqK+rnXu1gXJe4+LVhta/dtT61h+92qgKfFx33XWEDVeoQ+IZDYkHsGegA30X+Fl/q3RquBsVFBdEnxND5rGLROChHFUpq65QN9OtO8NUftfRvVRfzZL9p4Izde250I4VhYcXplr/2jEZfMTtTN2Pnh5uJBbn0HoAsI4KvUSndvR85JUIf6kRfe2yc6iXnZ05kGrrnI+cINbHahWlCffrHsrBZc3Is9qhTIMDbCTq+XjmmWdo2LBhtk7Xne5D68LOWbaWpx3d2tDzoZW3O7q1gfLMhxE1Ozz+3//7f3TaaafRJZdcYtBrnV4s/OiqxvrDgn0pIyi23GoZI0sYS8X/fUF7jZUGlKsaN/3yMoqohVJbPqep4Ey9Jj+nMcz3zI9J6l3n6ma1Zu7g79QcpBAey6B8vlYtn4pYf6W7uXnL9auvvkqjRo2iE088kTp1sjplt1TghCqFADZWseTwySdGfd6d6j6CcyYzjSDrUoS5TKKu7fYk8nQz4UT1w+3EhkC1XPNFCCEnGqMMts3qoLhvgpjDsIwMnEoXBIbatqVP7NChAz311FN05ZVXOppx6svzedVB4IcffiBsrtpptnypzrGsr8Kwp2WstuwxwGKn0ub23YihC64SBwLVcubrhkcLxd6RQyexO/0VzXWs+njwZtobOERzipbSibWOp0sCI8R82d9v1znnnEMbNmygCRMm0Pvvv+/YB2dUHQSgyXLNNdfQu+++Sw0aWI10vojMttyMtGoLW5IrLEGz4NR3UN6lNX1dPk8sAv6kR2L7rPDW3HaTbyh5lDaoVmcmdqGC9IxCswFfnrsjV9BvAiNleCF9vtc5/D4cf/zxdOutt3oV5fwURyAvL0+6EsWst29fa7h2CLhpEWuE4tGBgUm9s7DNxkdQPLlMqYFAtRS+PQMnOKK7lw7RGSU3kjnGG2K2udFSdZ1btq+8Rx55RHqjghoaU9VFYNy4cXTttddaIldrd/RdZIHQNM/TLuURE4J43JcaGvN5Ae0GM4VY+JohqbTrail8bwlcQg1Npr96hDeru2hA8TU0U10UTe6otKIRNnqZWoGFkdXaaVzH1157jVauXEmaPmhcjXHlpCPwhz/8gUaMGCGXHJw6/yjyvSXrnMBpQv0subNOu821TBE4iyk1EAjBn6am7mHHEvTevPLt6unTUB9qYm7kxQd0EvFx4kWvn9eWmtFCep1epI9kwMIfaDFtI6Nz9X1iBjyi+Cb6O11Pt9J4ydrrdB/dWPAYzc1YSbvJ6JwHYVhyi/IoUhJ25AGN6Plwut9//etfdPnll8vsW265xbaYFx6pMi41iY/f/va31LVrV+k61Ok5LCwpov+GZlrG9PzIYPnc+Hk+EvF9QT+HQjkWPuoUp4vt6CL5nOIZgx63070kig+n9sFcMvFINT6q5cwXg5pNTaRg/Tf9WWykPUVNxVzYTHgtmySCeV9E99B+OixqNKDnj9xKW+i/lvLYJV5I1mgE5jb9Xn/88cc0Y8YMevrpp/1W4XKViAB+LLt06UJOP5Yaaz8FlspnSbvGEd7vRtKp+qSknCNwppnc9kPMZfm6YhEIIeKCm8I3fpnc8jX23Mr4acOLDyiE4+PWD3ixy+9GHehH9RU6q3gibbSJajyVfhKBNH9Hrwfvp65C5QxtDC7pRebXx++Dv1C/UBfbPjQctKMdH1qehsfUqVPpoosuoscee0xawmn5OHrhobWhr2N37ocPu3paWk3nIxwOyzHq378/wWkOnMu7YfphZIYGXfSIjbb6IaMHPLc2/Iyt17jsDR+0BH2Ffvtxtco0M9AGjEaceEkEH37aAFBOPCDPTxteePhpI9l8VNuZL4DU0wlKa5oRfoGGOmys7RBK8WeVTKSHsv4jIxafYfL/gLamRn7UN5mQ848++kgq6d95550JaY8bSRwCe/bskeu7w4cPl4LXq2VEuP5YmWEpNi5whiVNLKJZ0hKZYF5mQ9vZitXfQyL75LbKh0CNEb6ApbFan75Ne56cwnWrQi3+xcxP6PTiG8hO9QxBEHf4iJJRviEgev311wnrb1dccUV5q3L5CkJgyZIl0jQcWg1QE/RDH4tZb45i9PUBK7MxgcFyKeKx8Fs0WOwx1KPhlFY0iPoWX0nfRYy+H/z046fMr2LxzEzHKy3NSXxdiQjUKOELnLHj/ETwFvo09LiIMWjvV/UndSmdX3yXeEkz7gxDOH+qzKqQ4XryySepV69eMgDn5s3WmF8V0ik3aovAp59+KmPxISQUDGP80puRLyxFoRv+f+HXqF3R+TRJvHnNp5Viflws5r0RGdF4dMnt9LO60lIv3oSVitWd6YlKu3ib5foJRKDGCV8NO8xGlqT9x1G9DNoQeI0006eBH8xJCbu+4447aOLEiXTmmWfSzJnWHfOEdcQNOSIAwwmoAX711Vd0xhlnOJYzZ2xVd9O3NrPYDyLT6ZHwmwbvYvq6MMj4qxDOiaaflVWWJrsr7S1pnFB5CLjrf1UeX0npGWtg34SepSfD79A94RflWq9Xx7OVZWLh4ZDBGbtXnfLkX3jhhdS5c2e5BIHNHXjMYqp4BOByEObCcAkJV6DlpRcjH8nZrLmen7Xd7yMLzdXiuoYWz89kFb5+HEHF1TFXLhcCNXbmq6GEkEJ3Bi+jmWkvUWubsEBaOe0Ik81hxTfSKnWTlpTwY7du3ejzzz+X/iDgpnDv3r0J74MbLEPg+++/l2bCp5xyCr3yyitlGT7PoIY4Ofypz9LWYnaWaNZS/lOwbGZee0a8QV528I9hMkrG7UxdU1yGKocTeTkyRj0vp91eztTj5aOXUEebrbxMF5RMogXp7vq8iAI7sOga+iLyD+qpdjTcdrx8aI3hfrEO/J///IcGDhxIDzzwAF1wwQVatqdD9kTy4eTAHsx4jW2q8wFT72nTptHkyZOlHq/bveJ+7Z7TNwNf0v7AYWS7EvYQukTa0qLAGkO55iKGoL5fL0xR2Y4PrdEpwWmWYAJnqH2pIL9AKyINK1LBmXqqPx9RwMRJvOOCtvRtxO1MXbNcc9PTQ6fxOu2GPqKbM/VE8FFbqMO/v+OvdHvmi/RpxH1t95CSS2ODd9HstFcJpskaJYIPtKU57UaEBKwBwyEP1oGxJlm/fulGoRumieZDuz+7Y1XkY+7cuQT1viFDhtC8efPkbUEAut0LCmnjosfh5WIx6zU5Tdfn43xsYAg9E7ydLi3+szmLoNZo7td8ba5kxwfKiHgv9EHRdHNxGps2xOD4H89HKjhTr8nPaY1fdjA/pelqGn0UeoR+HzjPnGW5hpOe0SW3WSyaLAXjTIA3NOzA9+nTh/r160cI1MgUGwKY7d1zzz1yYxMh3uN1coRNtsWqcSar5wyqZm+FHhAmx48JQ58lwmnpcn22PP9tYLQlLdaEKZHvCM+lnjDjPt+H72l9HT6veARY+NpgHBR+el8N3Uu3BC+xyTUmIfrFmOI7KRlOqq+//nppkgyzZGzM/fxzxeiIGu+w+lzB9y4iiuDNAbPdoUO9neG73T0c19wb/qdjkd5KJ1qU9iZdHjhbGPrm013h5yxleygdqLaSITd9f1NyH/Ur/h31CF1OJxSPoxElN9P94VfIb8h3qEI+Hv6PpQ8IXruoFpaCnJBUBGq0toMb0tiIw2si7PKhKuRGs9Vl9NuSv9L7oQfdiiUkr2XLljJywmeffSZnb71795YBOrOz3SNxJKTzKtoIlmv+9re/EbD7+uuvqV27dnHfCQTv2cW3OuroQuBOFj/gWjSJP5Q8QrCiNNNy4Se6f/HV5mS5jAG3p98JvQUYZzwbuoOuC5xvLadLeS8yzTZ00c3Bi3Wl+DRVEOCZr8dIPBz8Iz0YvN6jFNEH4nVvYvgfnuUSVQBuDWfPni2XIqCPigjJ+/fvT1Tz1aIdvBmMHz+eHn74YbnUgHh6iRC80P8+r+ROuYxgB9Tdwd/KpQZN8P4z8jG9G/nGrqiYq3osFotaMMq4XgQBcFNJg/9gGHGY6TTlJBqg9DAn83UKIMDC18cg/Cl4Ff0jONGz5HPhD+hRekuWg37nV5G59FrkM1qgWnUuPRvzWeDqq6+mX3/9lZo1a0YDBohIG8ecv/isXi2L/fTTT1Lo3nXXXVJfGgYTgwcPTsi9Qi1sXMk9joLwocj1hB9sjbDOe1vJU9plzEcI6fvCL9vWR97vSx4kGHqYyc/EwVyHr5ODAC87+MT5tuBvqJ5Sh24oeUzuKDtVu58mSxPmWSVL6MvInGgxBOB8OXg3IVZcRRAs4/B58cUXaeTIkVIQQzBDINcUgpvOl19+WWrF3HTTTTJqdKLv/Z6sl4WKoTU+G/o5RelKt0TKXvF/VTdLM3XMXBNB8C1iR7eHn7F44EO5cwODyBz41a4+p1UOAjzzLQfuVwfG0Gfhxxx9QmhN3UsvGQQv0mdEfqE+wpHKO5GvtWIVcvzjH/9IK1asIHjiuv/+++XxzTfflI7oK6TDSm5069atUmMBfjG+/PJLubb7v//9r0IE78PhN+jdzO8c7/jJ0ESxU6DI/O3qXuklD36ivQjaCOcJQYm3qxlp/6S/Ra4joVhpqdZYKXMHiUzMeG8NP0VPh9+zlK2r1qbng+wpzwJMCiWEcnJypI9SJ56gzA2dQieCNy4Q/Gk6kVcbqOfFx5EjRyg3N9eR1/LykRPIp+XBjVSkFFNtNYMaRepS00hDwUjYsQ/w2aW4JX2W8TD9rt7DtCa0FUm+CZs0l5X8hW4/egndfnC8az0vPLwwxWs2PqtWraIPP/xQGmmcdtppdO6559KgQYNk315toFC8fJR3XJxA0fNRUFBAELDwh7xr1y6p+TFlyhRq0qSJrA6zbDPFw8fuwEGamj6b/pr1urnZ6PUlBcPo+L2NaU/xHtqZfoAub/AgbQ7uiuabTyCkhxT3pEuODqORRf0oU00XhhpH6IE6/6JPMmaZi8vrMXkDaXte6b3tyz1AN+Y8RZ+m/2gpi7YfPfQHComoK9vFnx0BDxhGAT/4LLajqvp8xHIv8Twf+v70z6k+XTvXY6ps27ZNddsp91I81yxU3IwsvNoAY/jCuPGBzRIIElh92VF5+PhP5CuxfPCorbMTzBjaBJoT3O8dr7QQdm+tCL6AYUjRXjhaL8ovlArxUC37k1Azejr8vq1Nvx2P+rQzA6fItcG+Shd9cvTcCw8vTO3wgK4wBDHUrGC4gU27sWPHSmX7aMemk4rgw9SFtO7yMipYvHgx4QOBu2zZMhozZoz0PAaTYFAseDjxAWc3syPL6Ct1jnyD8Qqeiggoq2q9L9+IFhxdQaOCd0j/H+b2cS1CAtAEEdfi3rSroua+MIx4MfyRcLDzKtlFn0A9mAbPT/u3CMOZSdvUPXRu/u3CMdQ6ZFnooeANNLHwYovhhr4gng9EXoZ1X/PmzfVZ0XMvTFEwVZ6PqsiH9d0mCn31PMGuMNR+8oVmrh3BJh5h4vExE14F2wVbULeS9gQPUacq3enl0PFCFe0NWm8Tjt5cX3+N0OJQ0EcY+qdDt8kQRvr8ijiHoMUHhgbwHQF1tUmTJlGnTp2k71pYe8GIIxUIbznYOIOa2PTp06VZJgQurNIQVSKRhDeShepq+iGwiH4oWUw/RpaIlELfXbwa+lN0KeqWwFOOgheObZ5X76Ae4if9sHjO4INhcWQNPRl5x1WXF3rnfwleI9Qe0+WPAdQa96UZDSk0Zu8JXkn45Is/ptRGoMYJ3y3qLkfB6zVUmKGsVbbS2shWEeVtZrR4ulihi4WwZoc14K+L5tJLoUlkF/Eglna96sCsFEIYs1/MOJcuXSqNNxDOCE7EW7duLWdF0CFu2rSpnBkFg0GvZmPOx5ISZrWY0S5atEgaj2BmBp8W+EHA5hleC93ejPx2vls9QMuEb45l6jrCjHaBELqr1I1Ch0FElsAOiDiUh/4YuEg6S9fqrCX7pSi84QwN9BZvSy/RElpHu4r8qwWCt0tL/kw3Cv/TB0RQejw3dvR3oRJ5b/AquyxOS0EEapzw7aK0k97L7NRyYh2feHezsSlzccm9wr1KPeoV6ES9lBOobUYTGiScoXQW2hGIvVWRdNJJJxE+WnDIjRs30sKFC6VAhCkzNvFAHTp0oLZt21KrVq2oRYsWco0VwhtqbnXq1KGMjAypaYD1f8yusb6lrdXn5eVJPWSE5tmxYwdho2zTpk3yHHW7d+9OPXr0kPHSYPLbqFEjwy3jtdIvQThhfFcLbQN4n8NnpYjet5o20d5i+xmj37b15aDd8I/QrfokOo1Ook/JumaLmfXC8GpD2fJeOG3e4ccfBh1XBEaVt0kuX4kI1Djhi0gWU0NP0uVi4wszoFQizGqmRxbQdFpAwgMgvKTI3fNWSlO55tdFaUv48ehCbcVfU2ovXkQrguBLAp9x48ZF1/QgTDds2ECIsiH2CeRGzcqVKwnCFIIVH2yEYRMHs1TMrrFRm56eLn3kQpged9xxciYNQXv22WdLgwfMZv2sLdrdJ5YLflW3CCG7iZYH1tP6ku3yeo1IK8+ygV3bXmnNlEbSBwgE3yFhPAz1s6mRn+gHWuxVNaH58EkNXySnKt0S2i43VvEI1DjhC0hPUjrKKBZYc4Nl2meRWbRJ3VnxaMfQgzaLw0zuG5pX1oIYuXpFdUS05eMJPgT6BLrIY3fhKyDWZZCyxq1nEKYdO3aUH32ul+C02/jT1/c6zxVidLMYm/m1ltKB8EyCLw282kPAQp0r+goew5KBV99O+bBc+zj0qDTlvSn8hFyHxSadJGelH6fmYk6HNzSYtDcWG35MVQ+BGil8MUxQxxmk9KRBwZ7ShwNeTb8WFmmfHZ0pvuirxbbc0ZQfTWwezlWXy4+2VomZPWbHJ4q5cXvKpk6RNuKsOWH2nC0+2C1PFYJgxRrsemUL7Y/kyF387cInF3bz8WOIT/RVG1407TWiKuR26gukDgt9GDNh8+uu4BV0Y8njrt7MzPXKc91AzaJ8pVDo07gbZ5yt9GfBWx5gU6xsaOfOndSwodBvFYRXyi1btsjzNm3El1as78H5r126U3m7dGza2KWjfX368uXLSetXn45zvN7ilRYzLTt+kId1RLwSg5zacUu/ru0YOn9ffzpSkEPfHJlDvzRYRyubb6flGcc2ZGTLqf0P5q9w9r6cji2plBj5rV2STo0L61GrQFNqFWpGzQqPo8DBCBXtO0ppapCaNWxKLRo3l5X27dtH+Ah5SI0bN5YfZETTxTmeHaz5aum7D+yhYqWE6jWqT3Ua1aXDai5tzd1Buwv2U27aUSqoE6bDGfm0W2wdRTVOsJdn4lM2mOR/aWqITt3Xic7a2YdG1h1AZ7a7i44oeVEuQgKf3+85i55p+r7QVrAK5mjBOE/gK9oPbVi9nlYFVsnvKcpv3rxFfH83y6pwIoQ1enO69vzj+1JYWCg3WjGGWjrKbxHtbD7Wjlc61vVXr1rtu7y5fewfYIMX/Dj1u379erk3gLpO/GBJS5Njdu1Ajtmlm/lxar9NG7HQ17RUj9zYjlgCbFtqtaqll8oxazr60o9LjdTzBQhOZKcviBkmLNSmqwtoWsl8WqVsKnvddWoozvT6kTp0XLCBnP35iQMWZ3c1uvrJyol0ZWA0nV80mFpllv7wABA4srku/DDBu1gvsbTzz9Bd9O8jn9IrmZ+nBF5wVwm+7MjPchDr+ZYh52d5zAtTtGYnP8p6Meqj19hlBz0gXufwhYpox2NoMOUX5lNuppgxqEIYY3NMCGSsQyaa2kaa048Zk8V2Tki2j00lLI1gBx/na0SfVWFpJNG4JKq9NkpzuixwltQQOFFpJ5vNV426scMCfWlt4EOJs6Zx8iy9mygW4moH1nG9atkL3rga5spJQ4CFbwxQN1Ua0iXKcLokMFzWhp/WmUIY/xBZLGbIC4VKU+mrXwxNR6ssDa2n+kXDpWVdH6Uz9RTqZzheGTiH2grBkZefR/syc2iRcLaySERSwHGxKraixMZcdSL8+GC9ukVRI+qe3pHqKrXl/S6MrLZdk3W7d6jyXSzGbEJwJA1Wesl1f7fyWp4meHHdv6SbEL/faVmVcsQG2+NHbiAxJ2Cqwgiw8E3A4LVUGtNvlJHSWg2vLwjjMje0gn5QhcWUEMhQ5o9l6QA7+XJ3X8xy36dvo5xiJt4p2Jq6htuLzbW2UjBfHDhDmEG3kbM0qNCtLt5IG2gHbQ7sim5k4UfCaxMn2kkSTqCV0VSobDWPNKLWwWZiQ7CJ2CIUa9FC2LYRkaTbUQtqKdIww3/tyCf0Zfp8mh5eUGoQ4ZM/OK3BW8v4yAhh1HsK1Qn5V8+DNoX24waPYvPVFbSjrtUhuk9W5ObY+TREPguv0xcxPRP44f829LzwRZLht1sul6IIsPCtgIGBrf9FgWF0EQ0joXwgtHfzaF5kBc0RES/kJ7w8rg0btLdAWU0LxOxPT/AbAH8U3ZT2QtuhHfWkE+gPwQukTwqUgzDfqx4Srlb2CjUtYexQtJeOpOVLjQJoHhSpxVI4w5JPI691LmyUaEEQUQczVXxqKWlCISuNaofTBRpZ1DjUUB4bKfWomTAngZ4swpmDZB/pRqEIHv4n9GbhLnFq5EcqqFvk2/oMGgnwnTFBLCtcEDhdanhoa3qyQ9M//ChBdW2JiCq8NryNlkfEhqUwL49qWpjKl+cSPyQInnm+MlS6d3yq6F2aRC/EtGeAtekpob+LMW4pxtC/0Ul5+OWyyUOAhW8SsMZMFcLgTDHzAuUV5dHmzD2E8ENzhAMXqIthLTeW2bGefdSHjwl8PtOsrIS2UgsxMx+jDCZEWGgnhHNTaih1gvMjIlpv0Cj09O3hfHuOcHhUL9ucHL3OLxJtuMwmi8JCaAqqFagVreN2gpk+Ij+8Ff7S0UeCU31EbJgQGCmWg0aIGXWpBg/K4kdnj3BZs4620cbIzujbBPrCZlp07Ry6wnGqs0Hww+BhdOA0OicwMLohBh5uCz9Nz4h3mPISfsTuDF4m/DtcLX/Qylufy6cmAix8K2FcoGMM4wh8rhE+gkEIsIh1zJ/VlTLyxc/FK2mTcEmIL228tFPM7F5WP5EGJXNEqPuKcugeD58bxA/G3eEX6cPI9HLdMzbLRgT60YCi7pSVXkeYX+ympyPvybVvrH9vFWIXesPR5ZaySX087BrqYunndKWv/IEdWNiNmmeWqiTpC+HengmXX/CeFehPTwdvk8tL+vb4vOojEIIpqNsrGV4rvfK9YEB9/aupXXkvPmDeio8TL+DTixLBR0XhkS5e1QdSd/nBfezZv4cym2YJJyxraanQ2YXe7nKxigsfBRDUsRDMl58ofpuepztk9VTB46fwErqw+F5bF59e9yn9N4Q30XPBD5KiKwxdYFgUnkJdaYDwTzaEelFTVcyy8RspnPIUFAtno8HS2T4c4syhZTSVfhILDR953YohHz4i/krX0OBIL9lukfj50JPX98XPc4o2oKfr9J1KleejuvLBM1/9E51i53WF74ZBYuUWX0SY1C6iNdIj1hc0m1YJJzGxENaLK5rgaGij2OzDa/5aYb3WUfhEPov6O74yT0x7JibBi/tIxJuBEx4wI+4m7AR7UycxCh3FsTO12FefWjVp6VSFYCAxk36kr4Up+Fc0t1zrxngjGiVE+s2FF9EZ6f0c++CM6oFACB6o3Byh4xfULV+Dwa2Mnza8+IBvAXzc+gEvbvmJ4MNPG/HyAW2Jr8XO/trgTpondtixHBHrbFcbH+14Zeic6Pqrn3uxGxc4rcEr/RbxWVNrM+0M7o+aA0PoYgMrKhTFhiNoZ9r/qLmIgWcmWOStKtpkTk7qNX7k4DC/QySbeoQ6Sl/N2LTsIBzoYw1XT9jo0j9juE9oQiBY6leROTQnfVm5tDHQdkOx8fi74Ll0feBCyUd+Sb6hD33/2rnduGh5OPodWzg/0t9PLG041ffLB8rF20Yi8Eg2HzzzBeKVTPgCw4LuE3UGwck6XqWF69a4N3/0t9VaqG7dLzZsRgUG6JOj5+ABvgygDYHNKfhcgAnw2jqbKLekUGpIQKhi/XSf+HGIko9NKuilNleOi1bRn8AXxQC1O81RluuTE34OXw1thJ5Fp0AbKeAgbLH2fQK1lpoX6NBO68KOEWAwTZ0vx+pbMV74sSwvaRoZ0NuGNgRU4phqFgIsfCt5vKHiNF44yl4sDCUSSRBqrYReA4QNNqWyRayMTeoOgheug2qOEBc5dCB4mA4X58nQNfuE0MUs1EJQhiing3FzG93Fq7tG6GOXul8K9kOSj1waqvamucqKstmyVtjHEa/qMJ7AumurYFOIUumvGSpercX940cHn/Si0ke9Vsif1oW+a4T2gfHMd8Ka8etGc2hdcWxqXhC4WEa6kE6nS9JGOP4g6fvm8+qLAAvfSh5bOFH3ihEWC4sQcptIeAYTqlUGV5T6xhRxEb8yhb5F2/P1Yt48sPhauQ68Rz0oZLlJmhvf7A1tQM0KKnK1DinUumFL8UKQRQ2VujJsD2bUxyn1xVZl0HPWat6wMnRiusDGJEIJwYQcQneJ3kjm2DKKqYrjJazjoGYIQw+Ecq9fVKraV0sp/4+AYyecUSURYOFbicO2UcxEK0LwVuIt2XYN9a9YzZ6hIgY93OsKLqLsgLO+sW3HPhKx3AKH7NC1niViuM0vXiXj9yE9VkKgVej4jlZOk4YV2LjTqDw/AlodPlZPBFj4VuK41hMbULBKs8wEK5GnVOwagUZvE/aCiSLg/d/ID/R+ZBp9F1lQppGAGXgMMrc2Zcj4bGcrA2hoYU/qWbtzoljldqoxAix8K3FwjxMv0bBceiz8ViVykfpdY3MsUYRNxXOL76Af1SUxN4kfTOj6SqtF5RQ6LdBTbJeVBlHlqMExw1rjKoagZI1dXieCE2I30hS0odriRF5toJ4XH8hHH068JosPr3spLx9/od8Jb2Un0DuBabRIWSO1CmKdCWPzqa5aW66J1hP+gPHqvDywwWlYqkQ6TKHvK7rK8/nwOy4PRP5FPwbKL3hPUFvT6WJjsPfhDjSm3unUUC31SwEQw2JpJF98QH75qOjvix8+YLSEck7fKa82cL9e31uvNsr7fUGfdlQV+QhBzw8RaN3ILV+zXHPT00Pbbm0g34sP5KMvp3aSxYfXvcTCx3jhbwsfEDbK9opNqdV71lGdpvUoXy0QX2sRlPLYX1BsLtVSQhQpCFODDHiNyBRaqhmUpWQKbdHachkD7TxfNIXuo8k4rZLUUejYwjHOzcGLqXGtBrQ9bbvj2Gs3aH428COGUERQ3VsaWitszdYLX2JztOKOR/yIQUMEbicR7v10pY/0j4EK2/cLXxeZpZE7nBow86EvF8vzoa+vnXt9X1DOiw/ozWdmiufH5fvvloc+EsEH2qlo+YE+3O6lMsaFlx0wKilE2LmHI5yI0K3NFhs3Qg7YEhx/1xa+be3oT+GX6CF63S4rJdOg0dBdaU99lS7UP9Cdhgph1wH37oOwGScFrCLMO8IiHpywqit1LrSN4C8C1nZ+abh6Mt2adikNCPSQ2hR+63E5RiAWBFj4xoJaCtfZou6iR8NvpiSHWBeFz2HMKvGBY6Fu4tP6aBOqX7uehWf4RoBOMLQllqaLoKbhYtoiznGPsK5DVOOogQNUwGzUlC2NOiTgR+/ByHVC+J/kUIKTGYHEIsDCN7F4VmprWLJ4O/K1+G/So00iV3hlh1N0WI91EjZlHSIt5bFbWgeCO0sYGsB38J5jFnSYpc4ILKSD4VxplrxT2M/Bkm6HEKsQvNF7gWyOQ7i6QQC+ngveQSeVdHQrxnmMQEIRYOGbUDgrr7H/RmbSreGnxGxwV4UzgWWC1sKCDEYODSJZ1CTYkOAkHdewNhN+vYTV3BE6oB4R7mVWyHXWAyVHpFnyfvWwzDcwCRWvChKshn6OXeAHAj8OWMuFae/IwKnyR4E1FezQ4rSKQoCFb0Uhm8R2v4nMowtL7pZbchXdLQQXXtE3CAMRWK6JS3/mxzHozybiXqDO11kI2s5qW+EEsh31CXWh3oHO0plNItrnNhiBWBFg4RsrcilU79nIlKQIXtwytC7yxdw1VQg/BDLmW6QZdRRx7WBdhs260k8rORMHr5pKk9+IGqlyf8xH9UWAhW81GNtUEoaJhhMzVzjGaVxYj07IaCPPEfYdEZzhpSxbLH9gHdmvR7JE88ftMQKxIhDKycmh7dudvTRBeRm6fE4Eb/gg+NN0Iq82UM+LjyNHjlBubi49++yztt344QOK7Zo+n20jIhFK4dB9dCKvNiqDj7YdBL9nOnGceulp4SDVOZpO9Y5mUpY4ZuWJ84JMqpefSfXFp15e2RFlQaXjgoi9h6U58H76lX6ROaX/UnFcdOxFTyvj+Yh2rjsBH8Bs165dFA7bL7gn4nvr1YYfPLzawG15yQ+vNiqDj1DdunUpO9tZp1LOKFyUsKOvc7XKnIfoxlieerWBQvgBcOOjXr16lJWVRZs3bzY3L69hrQOC4rgTeX1BUQ8CHv04kVcblcFHIwHJ+Tu70k8jN9Pe5hUfqUJiI35zaxUFKb0gVPo5Ks7FJyM/jTJEWsZRkZ4vPnlCkV+k1T5aizLz0ijzaBqlFRrHyIgpfszzhUYEPmVUFceljPuys8p4Psp6LzsDH2effTY1b95cfspyys4S8b31aiNZ8iMV+agyyw4TJkxwtVCpyYNY9nUhqfe6IrKBNpZslzPE3GCBXKMtFBoIJWpYrtlCvAXETlkkHKGMELRvRah38UkX/+GBC469M5V0aTlXsD+f2hyXTXWFE6AskQMrOjgEktZ06eJ1PyiMPZrYG3uALx4X/ehULTyMnPNVohGoMsI30TdeXdtrItS9Tg/0iQbirBV0eSNB2Pd0Z8EJjLYXiTeSCnDlWF3x5/tiBPwiYHz/81uLyzECjAAjwAjEhQAL37jg48qMACPACMSGAAvf2HDjWowAI8AIxIUAC9+44OPKjAAjwAjEhkDcztShJgTSjnZseDlURh3o4UEdxIm82tD614527Xi1gTrMhxE5xoPxMCJgvOLnI3Y84nam7keVCOy5OTJGfrxOmZkPoFhGjEcZFjhjPBgPNxlUGc8HLzsYn0m+YgQYAUYgKQiw8E0KzNwJI8AIMAJGBFj4GvHgK0aAEWAEkoIAC9+kwMydMAKMACNgRICFrxEPvmIEGAFGICkIsPBNCszcCSPACDACRgRC8GOpqVkYs0qvoDfrlW9XT5+G+l5+dJkPPWIiYgSPiwEQxsMABz8fRjiqJB488zUNIl8yAowAI5AMBEKIQFHLxRE6Zr5u+RqTbmX8tMF8aEiWHhkPxsOIgPGKn4+qjwfPfI1jyFeMACPACCQFARa+SYGZO2EEGAFGwIgAC18jHnzFCDACjEBSEGDhmxSYuRNGgBFgBIwIsPA14sFXjAAjwAgkBQEWvkmBmTthBBgBRsCIQNzO1DUDjMp2Ys58GAeW8WA8jAgYr/j5qHw84namrlmuuen54jbdHBkjP15n6swHUCwjxqMMC5wxHoyHmwyqjOeDlx2MzyRfMQKMACOQFARY+CYFZu6EEWAEGAEjAix8jXjwFSPACDACSUGAhW9SYOZOGAFGgBEwIsDC14gHXzECjAAjkBQEWPgmBWbuhBFgBBgBIwIsfI148BUjwAgwAklBQFm1apVat25dx86Ki4ulDq5TAUQYAMG/qBN5tYF6OTk5xHyUIch4lGHBz4cRC8ajmuCxbds2IT+dKS8vzzlT5BQWFsqPWyGvNlCX+TAiyHgwHkYEjFf8fFR9PHjZwfojyimMACPACFQ4Aix8Kxxi7oARYAQYASsCLHytmHAKI8AIMAIVjgAL3wqHmDtgBBgBRsCKAAtfKyacwggwAoxAhSPAwrfCIeYOGAFGgBGwIhC3M3XNibp2tHZBdPToUbtkQxp0gfPz8w1p+guvNrT+taO+rnbu1QbKMR8aWqVHxoPxMCJgvOLnI3Y84namrnnEr2xn6syH8SFgPBgPN+fh/HxU/vPByw7GMeArRoARYASSggAL36TAzJ0wAowAI2BEgIWvEQ++YgQYAUYgKQiw8E0KzNwJI8AIMAJGBFj4GvHgK0aAEWAEkoIAC9+kwMydMAKMACNgRCAkHLORpnZizCq9gt6sV75dPX0a6odCIX2S5Zz5MELCeDAeRgSMV/x8VH08eOZrHEO+YgQYAUYgKQiEEIHCzUACM1+3fI1LtzJ+2mA+NCRLj4wH42FEwHjFz0fVx4NnvsYx5CtGgBFgBJKCAAvfpMDMnTACjAAjYESAha8RD75iBBgBRiApCLDwTQrM3AkjwAgwAkYEWPga8eArRoARYASSggAL36TAzJ0wAowAI2BEIG5n6poBRmU7MWc+jAPLeDAeRgSMV/x8VD4ecTtT1yzX3PR8cZtujp2Rn5aW5lnGrQ3mAyiWEeNRhgXOGA/GI9XkBy87GJ9JvmIEGAFGICkIsPBNCszcCSPACDACRgRY+Brx4CtGgBFgBJKCAAvfpMDMnTACjAAjYESAha8RD75iBBgBRiApCLDwTQrM3AkjwAgwAkYEWPga8eArRoARYASSgoCyatUqtW7duo6dFRcXSx1cpwLwqA+Cf1En8moD9XJycoj5KEOQ8SjDgp8PIxaMR/XA4/8DKRsKX7pwhYMAAAAASUVORK5CYII=;" parent="1" vertex="1">
          <mxGeometry x="-380" y="900" width="351" height="433" as="geometry" />
        </mxCell>
        <mxCell id="jxiP7f9gNLaoICvCJaSL-85" value="" style="endArrow=classic;html=1;rounded=0;exitX=0.5;exitY=1;exitDx=0;exitDy=0;entryX=0.5;entryY=0;entryDx=0;entryDy=0;strokeColor=#FF0000;" parent="1" source="jxiP7f9gNLaoICvCJaSL-63" target="jxiP7f9gNLaoICvCJaSL-27" edge="1">
          <mxGeometry width="50" height="50" relative="1" as="geometry">
            <mxPoint x="670" y="530" as="sourcePoint" />
            <mxPoint x="720" y="480" as="targetPoint" />
          </mxGeometry>
        </mxCell>
        <mxCell id="jxiP7f9gNLaoICvCJaSL-86" value="Дефолт" style="text;html=1;align=center;verticalAlign=middle;resizable=0;points=[];autosize=1;strokeColor=none;fillColor=none;rotation=0;" parent="1" vertex="1">
          <mxGeometry x="-160" y="130" width="70" height="30" as="geometry" />
        </mxCell>
        <mxCell id="jxiP7f9gNLaoICvCJaSL-88" value="Город: Москва&lt;br&gt;Должность: Бухгалтер" style="whiteSpace=wrap;html=1;aspect=fixed;" parent="1" vertex="1">
          <mxGeometry x="30" y="1890" width="110" height="110" as="geometry" />
        </mxCell>
        <mxCell id="jxiP7f9gNLaoICvCJaSL-89" value="Город: Москва&lt;br&gt;Должность: Оператор" style="whiteSpace=wrap;html=1;aspect=fixed;" parent="1" vertex="1">
          <mxGeometry x="160" y="1890" width="110" height="110" as="geometry" />
        </mxCell>
        <mxCell id="jxiP7f9gNLaoICvCJaSL-90" value="Город: ------&lt;br&gt;Должность: Бухгалтер" style="whiteSpace=wrap;html=1;aspect=fixed;" parent="1" vertex="1">
          <mxGeometry x="1110" y="1890" width="110" height="110" as="geometry" />
        </mxCell>
        <mxCell id="jxiP7f9gNLaoICvCJaSL-91" value="Город: ------&lt;br&gt;Должность: Оператор" style="whiteSpace=wrap;html=1;aspect=fixed;" parent="1" vertex="1">
          <mxGeometry x="980" y="1890" width="110" height="110" as="geometry" />
        </mxCell>
        <mxCell id="jxiP7f9gNLaoICvCJaSL-92" value="Город: Москва&lt;br&gt;Должность: ---------" style="whiteSpace=wrap;html=1;aspect=fixed;" parent="1" vertex="1">
          <mxGeometry x="290" y="1890" width="110" height="110" as="geometry" />
        </mxCell>
        <mxCell id="jxiP7f9gNLaoICvCJaSL-93" value="Город: СПБ&lt;br&gt;Должность: Бухгалтер" style="whiteSpace=wrap;html=1;aspect=fixed;" parent="1" vertex="1">
          <mxGeometry x="440" y="1890" width="110" height="110" as="geometry" />
        </mxCell>
        <mxCell id="jxiP7f9gNLaoICvCJaSL-94" value="Город: СПБ&lt;br&gt;Должность: Оператор" style="whiteSpace=wrap;html=1;aspect=fixed;" parent="1" vertex="1">
          <mxGeometry x="570" y="1890" width="110" height="110" as="geometry" />
        </mxCell>
        <mxCell id="jxiP7f9gNLaoICvCJaSL-95" value="Город: СПБ&lt;br&gt;Должность: ---------" style="whiteSpace=wrap;html=1;aspect=fixed;" parent="1" vertex="1">
          <mxGeometry x="700" y="1890" width="110" height="110" as="geometry" />
        </mxCell>
        <mxCell id="jxiP7f9gNLaoICvCJaSL-96" value="Город: ------&lt;br&gt;Должность: ---------" style="whiteSpace=wrap;html=1;aspect=fixed;" parent="1" vertex="1">
          <mxGeometry x="850" y="1890" width="110" height="110" as="geometry" />
        </mxCell>
        <mxCell id="jxiP7f9gNLaoICvCJaSL-98" value="Город: Москва&lt;br&gt;Должность: Бухгалтер Оператор" style="whiteSpace=wrap;html=1;aspect=fixed;" parent="1" vertex="1">
          <mxGeometry x="-100" y="1890" width="110" height="110" as="geometry" />
        </mxCell>
        <mxCell id="jxiP7f9gNLaoICvCJaSL-100" value="Город: Москва СПБ&lt;br&gt;Должность: Бухгалтер Оператор" style="whiteSpace=wrap;html=1;aspect=fixed;" parent="1" vertex="1">
          <mxGeometry x="-230" y="1890" width="110" height="110" as="geometry" />
        </mxCell>
        <mxCell id="jxiP7f9gNLaoICvCJaSL-102" value="Город: Москва СПБ&lt;br&gt;Должность: Оператор" style="whiteSpace=wrap;html=1;aspect=fixed;" parent="1" vertex="1">
          <mxGeometry x="-360" y="1890" width="110" height="110" as="geometry" />
        </mxCell>
        <mxCell id="jxiP7f9gNLaoICvCJaSL-103" value="Город: Москва СПБ&lt;br&gt;Должность: --------" style="whiteSpace=wrap;html=1;aspect=fixed;" parent="1" vertex="1">
          <mxGeometry x="-490" y="1890" width="110" height="110" as="geometry" />
        </mxCell>
        <mxCell id="jxiP7f9gNLaoICvCJaSL-104" value="Город: Москва СПБ&lt;br&gt;Должность: Бухгалтер" style="whiteSpace=wrap;html=1;aspect=fixed;" parent="1" vertex="1">
          <mxGeometry x="-630" y="1890" width="110" height="110" as="geometry" />
        </mxCell>
        <mxCell id="jxiP7f9gNLaoICvCJaSL-105" value="Город: Москва&lt;br&gt;Должность: Бухгалтер" style="whiteSpace=wrap;html=1;aspect=fixed;" parent="1" vertex="1">
          <mxGeometry x="30" y="1330" width="110" height="110" as="geometry" />
        </mxCell>
        <mxCell id="jxiP7f9gNLaoICvCJaSL-106" value="Город: Москва&lt;br&gt;Должность: Оператор" style="whiteSpace=wrap;html=1;aspect=fixed;" parent="1" vertex="1">
          <mxGeometry x="160" y="1330" width="110" height="110" as="geometry" />
        </mxCell>
        <mxCell id="jxiP7f9gNLaoICvCJaSL-107" value="Город: ------&lt;br&gt;Должность: Бухгалтер" style="whiteSpace=wrap;html=1;aspect=fixed;" parent="1" vertex="1">
          <mxGeometry x="1110" y="1330" width="110" height="110" as="geometry" />
        </mxCell>
        <mxCell id="jxiP7f9gNLaoICvCJaSL-108" value="Город: ------&lt;br&gt;Должность: Оператор" style="whiteSpace=wrap;html=1;aspect=fixed;" parent="1" vertex="1">
          <mxGeometry x="980" y="1330" width="110" height="110" as="geometry" />
        </mxCell>
        <mxCell id="jxiP7f9gNLaoICvCJaSL-109" value="Город: Москва&lt;br&gt;Должность: ---------" style="whiteSpace=wrap;html=1;aspect=fixed;" parent="1" vertex="1">
          <mxGeometry x="290" y="1330" width="110" height="110" as="geometry" />
        </mxCell>
        <mxCell id="jxiP7f9gNLaoICvCJaSL-110" value="Город: СПБ&lt;br&gt;Должность: Бухгалтер" style="whiteSpace=wrap;html=1;aspect=fixed;" parent="1" vertex="1">
          <mxGeometry x="440" y="1330" width="110" height="110" as="geometry" />
        </mxCell>
        <mxCell id="jxiP7f9gNLaoICvCJaSL-111" value="Город: СПБ&lt;br&gt;Должность: Оператор" style="whiteSpace=wrap;html=1;aspect=fixed;" parent="1" vertex="1">
          <mxGeometry x="570" y="1330" width="110" height="110" as="geometry" />
        </mxCell>
        <mxCell id="jxiP7f9gNLaoICvCJaSL-112" value="Город: СПБ&lt;br&gt;Должность: ---------" style="whiteSpace=wrap;html=1;aspect=fixed;" parent="1" vertex="1">
          <mxGeometry x="700" y="1330" width="110" height="110" as="geometry" />
        </mxCell>
        <mxCell id="jxiP7f9gNLaoICvCJaSL-113" value="Город: ------&lt;br&gt;Должность: ---------" style="whiteSpace=wrap;html=1;aspect=fixed;" parent="1" vertex="1">
          <mxGeometry x="850" y="1330" width="110" height="110" as="geometry" />
        </mxCell>
        <mxCell id="jxiP7f9gNLaoICvCJaSL-114" value="Город: Москва&lt;br&gt;Должность: Бухгалтер Оператор" style="whiteSpace=wrap;html=1;aspect=fixed;" parent="1" vertex="1">
          <mxGeometry x="-100" y="1330" width="110" height="110" as="geometry" />
        </mxCell>
        <mxCell id="jxiP7f9gNLaoICvCJaSL-115" value="Город: Москва СПБ&lt;br&gt;Должность: Бухгалтер Оператор" style="whiteSpace=wrap;html=1;aspect=fixed;" parent="1" vertex="1">
          <mxGeometry x="-230" y="1330" width="110" height="110" as="geometry" />
        </mxCell>
        <mxCell id="jxiP7f9gNLaoICvCJaSL-116" value="Город: Москва СПБ&lt;br&gt;Должность: Оператор" style="whiteSpace=wrap;html=1;aspect=fixed;" parent="1" vertex="1">
          <mxGeometry x="-360" y="1330" width="110" height="110" as="geometry" />
        </mxCell>
        <mxCell id="jxiP7f9gNLaoICvCJaSL-117" value="Город: Москва СПБ&lt;br&gt;Должность: --------" style="whiteSpace=wrap;html=1;aspect=fixed;" parent="1" vertex="1">
          <mxGeometry x="-490" y="1330" width="110" height="110" as="geometry" />
        </mxCell>
        <mxCell id="jxiP7f9gNLaoICvCJaSL-118" value="Город: Москва СПБ&lt;br&gt;Должность: Бухгалтер" style="whiteSpace=wrap;html=1;aspect=fixed;" parent="1" vertex="1">
          <mxGeometry x="-630" y="1330" width="110" height="110" as="geometry" />
        </mxCell>
        <mxCell id="jxiP7f9gNLaoICvCJaSL-119" value="" style="endArrow=classic;html=1;rounded=0;exitX=0.5;exitY=1;exitDx=0;exitDy=0;entryX=0.5;entryY=0;entryDx=0;entryDy=0;" parent="1" source="jxiP7f9gNLaoICvCJaSL-118" target="jxiP7f9gNLaoICvCJaSL-104" edge="1">
          <mxGeometry width="50" height="50" relative="1" as="geometry">
            <mxPoint x="-50" y="1700" as="sourcePoint" />
            <mxPoint y="1650" as="targetPoint" />
          </mxGeometry>
        </mxCell>
        <mxCell id="jxiP7f9gNLaoICvCJaSL-129" value="Дефолт" style="text;html=1;align=center;verticalAlign=middle;resizable=0;points=[];autosize=1;rotation=0;" parent="1" vertex="1">
          <mxGeometry x="-210" y="1300" width="70" height="30" as="geometry" />
        </mxCell>
        <mxCell id="jxiP7f9gNLaoICvCJaSL-130" value="" style="endArrow=classic;html=1;rounded=0;exitX=0.5;exitY=1;exitDx=0;exitDy=0;entryX=0.5;entryY=0;entryDx=0;entryDy=0;" parent="1" source="jxiP7f9gNLaoICvCJaSL-118" target="jxiP7f9gNLaoICvCJaSL-103" edge="1">
          <mxGeometry width="50" height="50" relative="1" as="geometry">
            <mxPoint x="-360" y="1590" as="sourcePoint" />
            <mxPoint x="-310" y="1540" as="targetPoint" />
          </mxGeometry>
        </mxCell>
        <mxCell id="jxiP7f9gNLaoICvCJaSL-131" value="" style="endArrow=classic;html=1;rounded=0;exitX=0.5;exitY=1;exitDx=0;exitDy=0;entryX=0.5;entryY=0;entryDx=0;entryDy=0;" parent="1" source="jxiP7f9gNLaoICvCJaSL-118" target="jxiP7f9gNLaoICvCJaSL-100" edge="1">
          <mxGeometry width="50" height="50" relative="1" as="geometry">
            <mxPoint x="-360" y="1590" as="sourcePoint" />
            <mxPoint x="-310" y="1540" as="targetPoint" />
          </mxGeometry>
        </mxCell>
        <mxCell id="jxiP7f9gNLaoICvCJaSL-133" value="" style="endArrow=classic;html=1;rounded=0;exitX=0.5;exitY=1;exitDx=0;exitDy=0;entryX=0.5;entryY=0;entryDx=0;entryDy=0;" parent="1" source="jxiP7f9gNLaoICvCJaSL-118" target="jxiP7f9gNLaoICvCJaSL-98" edge="1">
          <mxGeometry width="50" height="50" relative="1" as="geometry">
            <mxPoint x="-310" y="1710" as="sourcePoint" />
            <mxPoint x="-260" y="1660" as="targetPoint" />
          </mxGeometry>
        </mxCell>
        <mxCell id="jxiP7f9gNLaoICvCJaSL-134" value="" style="endArrow=classic;html=1;rounded=0;exitX=0.5;exitY=1;exitDx=0;exitDy=0;entryX=0.5;entryY=0;entryDx=0;entryDy=0;" parent="1" source="jxiP7f9gNLaoICvCJaSL-118" target="jxiP7f9gNLaoICvCJaSL-88" edge="1">
          <mxGeometry width="50" height="50" relative="1" as="geometry">
            <mxPoint x="-310" y="1710" as="sourcePoint" />
            <mxPoint x="-260" y="1660" as="targetPoint" />
          </mxGeometry>
        </mxCell>
        <mxCell id="jxiP7f9gNLaoICvCJaSL-135" value="" style="endArrow=classic;html=1;rounded=0;exitX=0.5;exitY=1;exitDx=0;exitDy=0;entryX=0.5;entryY=0;entryDx=0;entryDy=0;" parent="1" source="jxiP7f9gNLaoICvCJaSL-118" target="jxiP7f9gNLaoICvCJaSL-92" edge="1">
          <mxGeometry width="50" height="50" relative="1" as="geometry">
            <mxPoint x="-310" y="1710" as="sourcePoint" />
            <mxPoint x="-260" y="1660" as="targetPoint" />
          </mxGeometry>
        </mxCell>
        <mxCell id="jxiP7f9gNLaoICvCJaSL-136" value="" style="endArrow=classic;html=1;rounded=0;exitX=0.5;exitY=1;exitDx=0;exitDy=0;entryX=0.5;entryY=0;entryDx=0;entryDy=0;" parent="1" source="jxiP7f9gNLaoICvCJaSL-118" target="jxiP7f9gNLaoICvCJaSL-93" edge="1">
          <mxGeometry width="50" height="50" relative="1" as="geometry">
            <mxPoint x="50" y="1710" as="sourcePoint" />
            <mxPoint x="100" y="1660" as="targetPoint" />
          </mxGeometry>
        </mxCell>
        <mxCell id="jxiP7f9gNLaoICvCJaSL-137" value="" style="endArrow=classic;html=1;rounded=0;exitX=0.5;exitY=1;exitDx=0;exitDy=0;entryX=0.5;entryY=0;entryDx=0;entryDy=0;" parent="1" source="jxiP7f9gNLaoICvCJaSL-118" target="jxiP7f9gNLaoICvCJaSL-95" edge="1">
          <mxGeometry width="50" height="50" relative="1" as="geometry">
            <mxPoint x="50" y="1710" as="sourcePoint" />
            <mxPoint x="100" y="1660" as="targetPoint" />
          </mxGeometry>
        </mxCell>
        <mxCell id="jxiP7f9gNLaoICvCJaSL-138" value="" style="endArrow=classic;html=1;rounded=0;exitX=0.5;exitY=1;exitDx=0;exitDy=0;entryX=0.5;entryY=0;entryDx=0;entryDy=0;" parent="1" source="jxiP7f9gNLaoICvCJaSL-118" target="jxiP7f9gNLaoICvCJaSL-96" edge="1">
          <mxGeometry width="50" height="50" relative="1" as="geometry">
            <mxPoint x="90" y="1710" as="sourcePoint" />
            <mxPoint x="140" y="1660" as="targetPoint" />
          </mxGeometry>
        </mxCell>
        <mxCell id="jxiP7f9gNLaoICvCJaSL-139" value="" style="endArrow=classic;html=1;rounded=0;exitX=0.5;exitY=1;exitDx=0;exitDy=0;entryX=0.5;entryY=0;entryDx=0;entryDy=0;" parent="1" source="jxiP7f9gNLaoICvCJaSL-118" target="jxiP7f9gNLaoICvCJaSL-90" edge="1">
          <mxGeometry width="50" height="50" relative="1" as="geometry">
            <mxPoint x="160" y="1710" as="sourcePoint" />
            <mxPoint x="210" y="1660" as="targetPoint" />
          </mxGeometry>
        </mxCell>
        <mxCell id="jxiP7f9gNLaoICvCJaSL-140" value="" style="endArrow=classic;html=1;rounded=0;exitX=0.5;exitY=1;exitDx=0;exitDy=0;entryX=0.5;entryY=0;entryDx=0;entryDy=0;" parent="1" source="jxiP7f9gNLaoICvCJaSL-106" target="jxiP7f9gNLaoICvCJaSL-102" edge="1">
          <mxGeometry width="50" height="50" relative="1" as="geometry">
            <mxPoint x="40" y="1710" as="sourcePoint" />
            <mxPoint x="90" y="1660" as="targetPoint" />
          </mxGeometry>
        </mxCell>
        <mxCell id="jxiP7f9gNLaoICvCJaSL-141" value="" style="endArrow=classic;html=1;rounded=0;entryX=0.5;entryY=0;entryDx=0;entryDy=0;exitX=0.5;exitY=1;exitDx=0;exitDy=0;" parent="1" source="jxiP7f9gNLaoICvCJaSL-106" target="jxiP7f9gNLaoICvCJaSL-100" edge="1">
          <mxGeometry width="50" height="50" relative="1" as="geometry">
            <mxPoint x="210" y="1440" as="sourcePoint" />
            <mxPoint x="90" y="1660" as="targetPoint" />
          </mxGeometry>
        </mxCell>
        <mxCell id="jxiP7f9gNLaoICvCJaSL-142" value="" style="endArrow=classic;html=1;rounded=0;exitX=0.5;exitY=1;exitDx=0;exitDy=0;entryX=0.5;entryY=0;entryDx=0;entryDy=0;" parent="1" source="jxiP7f9gNLaoICvCJaSL-106" target="jxiP7f9gNLaoICvCJaSL-98" edge="1">
          <mxGeometry width="50" height="50" relative="1" as="geometry">
            <mxPoint x="40" y="1710" as="sourcePoint" />
            <mxPoint x="90" y="1660" as="targetPoint" />
          </mxGeometry>
        </mxCell>
        <mxCell id="jxiP7f9gNLaoICvCJaSL-143" value="" style="endArrow=classic;html=1;rounded=0;entryX=0.5;entryY=0;entryDx=0;entryDy=0;exitX=0.5;exitY=1;exitDx=0;exitDy=0;" parent="1" source="jxiP7f9gNLaoICvCJaSL-106" target="jxiP7f9gNLaoICvCJaSL-89" edge="1">
          <mxGeometry width="50" height="50" relative="1" as="geometry">
            <mxPoint x="40" y="1710" as="sourcePoint" />
            <mxPoint x="90" y="1660" as="targetPoint" />
          </mxGeometry>
        </mxCell>
        <mxCell id="jxiP7f9gNLaoICvCJaSL-144" value="" style="endArrow=classic;html=1;rounded=0;entryX=0.5;entryY=0;entryDx=0;entryDy=0;exitX=0.5;exitY=1;exitDx=0;exitDy=0;" parent="1" source="jxiP7f9gNLaoICvCJaSL-106" target="jxiP7f9gNLaoICvCJaSL-103" edge="1">
          <mxGeometry width="50" height="50" relative="1" as="geometry">
            <mxPoint x="40" y="1710" as="sourcePoint" />
            <mxPoint x="90" y="1660" as="targetPoint" />
          </mxGeometry>
        </mxCell>
        <mxCell id="jxiP7f9gNLaoICvCJaSL-145" value="" style="endArrow=classic;html=1;rounded=0;exitX=0.5;exitY=1;exitDx=0;exitDy=0;entryX=0.5;entryY=0;entryDx=0;entryDy=0;" parent="1" source="jxiP7f9gNLaoICvCJaSL-106" target="jxiP7f9gNLaoICvCJaSL-92" edge="1">
          <mxGeometry width="50" height="50" relative="1" as="geometry">
            <mxPoint x="40" y="1710" as="sourcePoint" />
            <mxPoint x="90" y="1660" as="targetPoint" />
          </mxGeometry>
        </mxCell>
        <mxCell id="jxiP7f9gNLaoICvCJaSL-146" value="" style="endArrow=classic;html=1;rounded=0;exitX=0.5;exitY=1;exitDx=0;exitDy=0;entryX=0.5;entryY=0;entryDx=0;entryDy=0;" parent="1" source="jxiP7f9gNLaoICvCJaSL-106" target="jxiP7f9gNLaoICvCJaSL-96" edge="1">
          <mxGeometry width="50" height="50" relative="1" as="geometry">
            <mxPoint x="270" y="1710" as="sourcePoint" />
            <mxPoint x="320" y="1660" as="targetPoint" />
          </mxGeometry>
        </mxCell>
        <mxCell id="jxiP7f9gNLaoICvCJaSL-147" value="" style="endArrow=classic;html=1;rounded=0;exitX=0.5;exitY=1;exitDx=0;exitDy=0;entryX=0.5;entryY=0;entryDx=0;entryDy=0;" parent="1" source="jxiP7f9gNLaoICvCJaSL-106" target="jxiP7f9gNLaoICvCJaSL-91" edge="1">
          <mxGeometry width="50" height="50" relative="1" as="geometry">
            <mxPoint x="420" y="1710" as="sourcePoint" />
            <mxPoint x="470" y="1660" as="targetPoint" />
          </mxGeometry>
        </mxCell>
        <mxCell id="iIBWQLvVHoeRA8ok8rFD-1" value="&lt;div&gt;Невозможно в РИТ&lt;/div&gt;" style="text;html=1;strokeColor=none;fillColor=none;align=center;verticalAlign=middle;whiteSpace=wrap;rounded=0;" vertex="1" parent="1">
          <mxGeometry x="-415" y="830" width="60" height="30" as="geometry" />
        </mxCell>
        <mxCell id="iIBWQLvVHoeRA8ok8rFD-2" value="&lt;div&gt;Невозможно в РИТ&lt;/div&gt;" style="text;html=1;strokeColor=none;fillColor=none;align=center;verticalAlign=middle;whiteSpace=wrap;rounded=0;" vertex="1" parent="1">
          <mxGeometry x="-413" y="130" width="60" height="30" as="geometry" />
        </mxCell>
        <mxCell id="iIBWQLvVHoeRA8ok8rFD-3" value="&lt;div&gt;Невозможно в РИТ&lt;/div&gt;" style="text;html=1;strokeColor=none;fillColor=none;align=center;verticalAlign=middle;whiteSpace=wrap;rounded=0;" vertex="1" parent="1">
          <mxGeometry x="370" y="130" width="60" height="30" as="geometry" />
        </mxCell>
        <mxCell id="iIBWQLvVHoeRA8ok8rFD-4" value="&lt;div&gt;Невозможно в РИТ&lt;/div&gt;" style="text;html=1;strokeColor=none;fillColor=none;align=center;verticalAlign=middle;whiteSpace=wrap;rounded=0;" vertex="1" parent="1">
          <mxGeometry x="775" y="130" width="60" height="30" as="geometry" />
        </mxCell>
        <mxCell id="iIBWQLvVHoeRA8ok8rFD-5" value="&lt;div&gt;Невозможно в РИТ&lt;/div&gt;" style="text;html=1;strokeColor=none;fillColor=none;align=center;verticalAlign=middle;whiteSpace=wrap;rounded=0;" vertex="1" parent="1">
          <mxGeometry x="775" y="830" width="60" height="30" as="geometry" />
        </mxCell>
        <mxCell id="iIBWQLvVHoeRA8ok8rFD-6" value="&lt;div&gt;Невозможно в РИТ&lt;/div&gt;" style="text;html=1;strokeColor=none;fillColor=none;align=center;verticalAlign=middle;whiteSpace=wrap;rounded=0;" vertex="1" parent="1">
          <mxGeometry x="365" y="830" width="60" height="30" as="geometry" />
        </mxCell>
        <mxCell id="iIBWQLvVHoeRA8ok8rFD-7" value="&lt;div&gt;Невозможно в РИТ&lt;/div&gt;" style="text;html=1;strokeColor=none;fillColor=none;align=center;verticalAlign=middle;whiteSpace=wrap;rounded=0;" vertex="1" parent="1">
          <mxGeometry x="925" y="830" width="60" height="30" as="geometry" />
        </mxCell>
        <mxCell id="iIBWQLvVHoeRA8ok8rFD-8" value="&lt;div&gt;Невозможно в РИТ&lt;/div&gt;" style="text;html=1;strokeColor=none;fillColor=none;align=center;verticalAlign=middle;whiteSpace=wrap;rounded=0;" vertex="1" parent="1">
          <mxGeometry x="1055" y="830" width="60" height="30" as="geometry" />
        </mxCell>
        <mxCell id="iIBWQLvVHoeRA8ok8rFD-9" value="&lt;div&gt;Невозможно в РИТ&lt;/div&gt;" style="text;html=1;strokeColor=none;fillColor=none;align=center;verticalAlign=middle;whiteSpace=wrap;rounded=0;" vertex="1" parent="1">
          <mxGeometry x="1185" y="830" width="60" height="30" as="geometry" />
        </mxCell>
        <mxCell id="iIBWQLvVHoeRA8ok8rFD-10" value="&lt;div&gt;Невозможно в РИТ&lt;/div&gt;" style="text;html=1;strokeColor=none;fillColor=none;align=center;verticalAlign=middle;whiteSpace=wrap;rounded=0;" vertex="1" parent="1">
          <mxGeometry x="925" y="130" width="60" height="30" as="geometry" />
        </mxCell>
        <mxCell id="iIBWQLvVHoeRA8ok8rFD-11" value="&lt;div&gt;Невозможно в РИТ&lt;/div&gt;" style="text;html=1;strokeColor=none;fillColor=none;align=center;verticalAlign=middle;whiteSpace=wrap;rounded=0;" vertex="1" parent="1">
          <mxGeometry x="1050" y="130" width="60" height="30" as="geometry" />
        </mxCell>
        <mxCell id="iIBWQLvVHoeRA8ok8rFD-12" value="&lt;div&gt;Невозможно в РИТ&lt;/div&gt;" style="text;html=1;strokeColor=none;fillColor=none;align=center;verticalAlign=middle;whiteSpace=wrap;rounded=0;" vertex="1" parent="1">
          <mxGeometry x="1181" y="130" width="60" height="30" as="geometry" />
        </mxCell>
      </root>
    </mxGraphModel>
  </diagram>
</mxfile>
